<?xml version="1.0" encoding="UTF-8" standalone="no"?>
<!-- Created with Inkscape (http://www.inkscape.org/) -->

<svg
   width="187.1264mm"
   height="149.37251mm"
   viewBox="0 0 187.1264 149.37251"
   version="1.1"
   id="svg1"
   xml:space="preserve"
   inkscape:version="1.2.2 (b0a8486541, 2022-12-01)"
   sodipodi:docname="logo.svg"
   inkscape:export-filename="heavy_logo_hi.tiff"
   inkscape:export-xdpi="300"
   inkscape:export-ydpi="300"
   xmlns:inkscape="http://www.inkscape.org/namespaces/inkscape"
   xmlns:sodipodi="http://sodipodi.sourceforge.net/DTD/sodipodi-0.dtd"
   xmlns="http://www.w3.org/2000/svg"
   xmlns:svg="http://www.w3.org/2000/svg"><sodipodi:namedview
     id="namedview1"
     pagecolor="#505050"
     bordercolor="#eeeeee"
     borderopacity="1"
     inkscape:showpageshadow="0"
     inkscape:pageopacity="0"
     inkscape:pagecheckerboard="0"
     inkscape:deskcolor="#505050"
     inkscape:document-units="mm"
     inkscape:zoom="0.74016561"
     inkscape:cx="563.38743"
     inkscape:cy="179.68952"
     inkscape:window-width="2560"
     inkscape:window-height="1368"
     inkscape:window-x="1280"
     inkscape:window-y="0"
     inkscape:window-maximized="1"
     inkscape:current-layer="layer1"
     showgrid="false" /><defs
     id="defs1"><rect
       x="110.81897"
       y="836.87427"
       width="628.61102"
       height="135.6577"
       id="rect1" /></defs><g
     inkscape:label="Layer 1"
     inkscape:groupmode="layer"
     id="layer1"
     transform="translate(-12.268568,-53.900992)"><path
       style="fill:#e00000;fill-opacity:1;stroke:#000000;stroke-width:1.5;stroke-dasharray:none;stroke-opacity:1;paint-order:stroke fill markers"
       d="m 16.409385,201.94018 c 0,-0.32061 0.107531,-0.64975 0.238882,-0.73098 0.131352,-0.0813 0.238939,-0.46738 0.238995,-0.85794 1.7e-5,-0.41714 0.150882,-0.76818 0.365549,-0.85054 0.240689,-0.0926 0.313561,-0.3043 0.213368,-0.61981 -0.08348,-0.26366 -0.05532,-0.41996 0.0626,-0.34658 0.118143,0.0728 0.518237,-0.72114 0.889108,-1.76493 0.370855,-1.04373 0.769577,-1.95661 0.886072,-2.0286 0.116506,-0.0721 0.211788,-0.30674 0.211788,-0.52168 -1.7e-5,-0.25001 -0.215231,-0.0991 -0.597387,0.41894 -0.534493,0.72445 -0.597403,0.7537 -0.597403,0.27772 2.3e-5,-0.29262 0.155793,-0.90492 0.346244,-1.36069 0.190451,-0.45575 0.284773,-0.82868 0.209699,-0.82868 -0.07502,2.4e-4 0.0062,-0.17222 0.180912,-0.38248 0.174589,-0.21043 0.341954,-0.54911 0.371814,-0.75269 0.02992,-0.20361 0.142133,-0.4347 0.249438,-0.51356 0.107249,-0.079 0.202079,-0.35843 0.210715,-0.62132 0.0085,-0.26287 0.09523,-0.8005 0.19254,-1.19478 l 0.176904,-0.71687 -0.394901,0.55142 c -0.217207,0.30324 -0.415448,0.67963 -0.44051,0.83636 -0.06198,0.38739 -1.72558,2.95357 -2.328882,3.59236 -0.268009,0.28376 -0.654443,0.83853 -0.858769,1.23281 -0.363742,0.70188 -0.727919,1.06434 -1.076759,1.07165 -0.248591,0.005 -0.07338,-1.22149 0.264735,-1.85323 0.156808,-0.29296 0.221496,-0.53269 0.143769,-0.53269 -0.07778,-2e-4 -0.361541,0.49775 -0.630633,1.10616 -0.269138,0.6084 -0.812708,1.60306 -1.207976,2.21036 l -0.718668,1.10421 0.157712,-1.07531 c 0.175662,-1.19759 0.768375,-3.07699 1.094213,-3.4696 0.116563,-0.14043 0.914696,-1.64304 1.773611,-3.33908 1.013585,-2.00145 1.469945,-3.14039 1.300317,-3.24523 -0.188588,-0.11657 -0.187742,-0.20705 0.0031,-0.32497 0.145519,-0.0899 0.265976,-0.0765 0.267839,0.0299 0.0016,0.1064 0.431986,-0.59295 0.955828,-1.554 0.523882,-0.96103 0.95247,-1.91417 0.95247,-2.11809 1.2e-5,-0.46167 0.976911,-2.28402 1.355262,-2.52809 0.154043,-0.0991 0.465516,-0.74452 0.692364,-1.43375 0.226859,-0.68922 0.487981,-1.30691 0.580373,-1.37262 0.371701,-0.26445 0.685551,-1.14551 0.568051,-1.59481 -0.155228,-0.59358 1.021538,-2.07278 1.502227,-1.88832 0.215908,0.0829 0.468281,-0.1847 0.720118,-0.76343 0.213255,-0.49007 0.701621,-1.58322 1.085283,-2.42927 0.591516,-1.30438 0.67307,-1.71648 0.536356,-2.71037 -0.149358,-1.08605 -0.107587,-1.22748 0.568892,-1.92662 0.401562,-0.41499 0.953723,-1.26083 1.227049,-1.87967 0.273372,-0.61882 0.593989,-1.18512 0.712572,-1.25841 0.118594,-0.0733 0.171824,-0.57344 0.118312,-1.11142 -0.09963,-1.00149 0.19491,-1.85659 0.75327,-2.18687 0.364476,-0.21563 0.807599,-1.66082 0.809535,-2.64031 0.0015,-0.78315 1.257626,-2.19173 1.776795,-1.9925 0.214045,0.0821 0.38728,-0.0999 0.489279,-0.51406 0.08687,-0.35268 0.580639,-1.51364 1.097216,-2.57991 0.5166,-1.06629 0.93925,-2.04524 0.93925,-2.17547 1.64e-4,-0.13022 0.259203,-0.51649 0.57605,-0.85834 0.316835,-0.34184 0.653099,-0.97234 0.747258,-1.40106 0.09415,-0.42871 0.256493,-0.94431 0.360694,-1.14576 0.39682,-0.76711 1.262514,-3.18978 1.43996,-4.02981 0.10183,-0.48217 0.366283,-1.57562 0.587632,-2.4299 0.221328,-0.85426 0.399417,-1.71451 0.395748,-1.91165 -0.01016,-0.56159 0.717985,-2.86749 0.905828,-2.86749 0.0928,2.6e-4 0.373733,-0.40326 0.62443,-0.8961 0.434583,-0.85437 1.032946,-1.71435 1.979686,-2.84526 0.242664,-0.28991 0.55329,-0.44017 0.709778,-0.34342 0.201796,0.12469 0.10595,0.65183 -0.348559,1.91774 -0.481546,1.34115 -0.557693,1.78853 -0.32835,1.93025 0.20366,0.12587 0.247688,0.47748 0.138633,1.10671 -0.114812,0.66248 -0.09105,0.82131 0.08433,0.56385 0.134287,-0.19717 0.245826,-0.55233 0.247858,-0.7893 0.002,-0.23696 0.272468,-0.82647 0.60105,-1.31 0.328576,-0.48353 0.597397,-0.99902 0.597397,-1.14555 -1.13e-4,-0.14653 0.215062,-0.5144 0.477934,-0.81744 0.262872,-0.30306 0.477934,-0.64962 0.477934,-0.77012 -1.35e-4,-0.12046 0.322593,-0.68796 0.716873,-1.26102 0.493513,-0.71731 0.716872,-1.33004 0.716872,-1.96666 2.3e-5,-0.9639 0.328577,-1.49823 0.921329,-1.49822 0.490691,0 1.946162,-1.15376 1.946162,-1.54271 2.09e-4,-0.17803 0.451178,-0.46822 1.002651,-0.645 0.822981,-0.26377 1.038331,-0.46054 1.201626,-1.09798 0.10945,-0.42713 0.357194,-0.79006 0.55058,-0.80649 0.912766,-0.0776 1.546334,-0.44999 1.546385,-0.90844 -6e-6,-0.22511 0.268856,-0.64298 0.597392,-0.92869 0.328576,-0.28567 0.597403,-0.71851 0.597398,-0.96188 5e-6,-0.57989 0.73835,-1.23341 1.393442,-1.23341 0.506045,-2e-5 1.577758,-1.02172 2.891791,-2.75694 1.004853,-1.32693 1.653363,-0.91975 1.149554,0.7218 -0.179896,0.58624 -0.188702,0.92883 -0.02653,1.0371 0.133101,0.0889 0.239334,0.72095 0.236624,1.40433 -0.0034,0.79366 0.13011,1.39803 0.369669,1.67271 0.206256,0.23651 0.325133,0.56808 0.264171,0.73679 -0.06102,0.16872 -0.01298,0.43752 0.106289,0.59739 0.322818,0.43204 0.192144,1.876 -0.197168,2.17811 -0.955885,0.7418 -1.197296,2.6044 -0.424423,3.27469 0.278452,0.24148 0.446098,0.59571 0.372661,0.78716 -0.07349,0.19147 0.01185,0.46868 0.188983,0.61591 0.314239,0.26073 0.358832,1.64581 0.07716,2.39571 -0.326883,0.87018 -0.667132,2.37735 -0.667132,2.95495 2.3e-5,0.34619 -0.120062,0.62941 -0.266823,0.6294 -0.168832,2.5e-4 -0.203039,0.19734 -0.09308,0.53766 0.09562,0.29572 0.158898,1.05274 0.140665,1.68229 -0.01806,0.62955 0.0937,1.59733 0.248648,2.15061 0.15472,0.55335 0.262646,1.31629 0.239334,1.69552 -0.02314,0.37921 0.121755,0.94 0.322197,1.24615 0.482732,0.73669 0.460154,0.87486 -0.113232,0.6929 -0.334616,-0.10618 -0.477934,-0.0429 -0.477934,0.21099 2.6e-4,0.19943 -0.173517,0.45976 -0.38553,0.57847 -0.303063,0.16957 -0.330834,0.31825 -0.129602,0.69409 0.28387,0.53037 0.159236,4.19718 -0.189153,5.56412 -0.284265,1.1154 -0.583314,3.98168 -0.396933,3.80409 0.081,-0.0772 0.348558,-0.93296 0.594593,-1.90177 0.460548,-1.81343 0.984593,-2.48313 0.984593,-1.25819 -2.2e-5,1.18679 -2.139899,10.79214 -3.237301,14.53127 -0.454452,1.54848 -0.692567,4.65968 -0.356574,4.65967 0.136658,1.9e-4 0.248479,0.32056 0.248704,0.71227 6e-6,0.56051 -0.127287,0.74427 -0.597397,0.86225 -0.543864,0.13638 -0.597403,0.26429 -0.597398,1.4242 2.8e-5,0.70083 0.107531,1.34071 0.238939,1.42194 0.356686,0.22048 0.288386,1.46967 -0.101717,1.85979 -0.187403,0.1874 -0.37554,0.70584 -0.418157,1.15211 -0.05024,0.52343 -0.19079,0.78779 -0.396764,0.74482 -0.175605,-0.0367 -0.376329,0.15168 -0.446041,0.41816 -0.06971,0.26665 -0.221045,0.48476 -0.336196,0.48476 -0.117522,-6e-5 -0.141343,1.57282 -0.05419,3.58437 0.105273,2.43182 0.07485,3.58436 -0.09455,3.58436 -0.23448,2e-5 -0.564529,1.15137 -0.66142,2.30791 -0.02371,0.28364 -0.161833,0.8213 -0.306844,1.19479 -0.145012,0.37351 -0.316722,0.89411 -0.381749,1.15697 -0.06497,0.26288 -0.09788,-0.37305 -0.07315,-1.41317 0.03161,-1.33358 -0.0429,-1.92063 -0.253728,-1.99132 -0.191128,-0.0641 -0.301763,0.1436 -0.307182,0.57681 -0.0046,0.37238 -0.162172,0.94588 -0.34997,1.27444 -0.187798,0.32858 -0.345284,0.83934 -0.349969,1.13505 -0.0047,0.29573 -0.09951,0.53766 -0.210885,0.53766 -0.111313,3e-5 -0.433905,0.20078 -0.716872,0.44621 -0.377854,0.32773 -0.514455,0.7193 -0.514455,1.47467 -1.7e-5,0.62259 -0.156414,1.20131 -0.396369,1.46643 -0.326262,0.36052 -0.34709,0.54612 -0.117635,1.04961 0.153253,0.33642 0.173348,0.54657 0.04459,0.46698 -0.128698,-0.0795 -0.505706,0.0333 -0.837663,0.25074 -0.577963,0.3787 -0.623498,0.37148 -1.071911,-0.16928 -0.47641,-0.57459 -0.439098,-1.35335 0.08128,-1.69618 0.185315,-0.12209 0.172897,-0.17673 -0.04064,-0.17927 -0.232956,-0.003 -0.245374,-0.11905 -0.05137,-0.4816 0.265526,-0.49611 0.0068,-1.30985 -0.46862,-1.47265 -0.129319,-0.0446 -0.307804,-0.86571 -0.396651,-1.82535 -0.180008,-1.94464 -0.501867,-1.99295 -0.725266,-0.1086 -0.108095,0.91253 -0.255365,1.24556 -0.589591,1.33296 -0.420133,0.10985 -0.440397,-0.048 -0.355896,-2.76931 0.08602,-2.76972 0.06672,-2.91048 -0.479289,-3.49932 -0.753811,-0.81291 -0.986558,-2.05645 -0.487981,-2.60733 0.520269,-0.57488 0.724527,-6.02963 0.259372,-6.92624 -0.173799,-0.33502 -0.24972,-0.71608 -0.169058,-0.84678 0.08078,-0.13073 0.229117,-0.62233 0.329649,-1.09244 0.100531,-0.47014 0.334164,-1.53119 0.519253,-2.35794 0.185088,-0.82675 0.246277,-1.55893 0.136036,-1.62706 -0.452928,-0.27992 -0.196378,-1.75073 0.411327,-2.35847 0.336479,-0.33648 0.645265,-0.79838 0.686177,-1.02643 0.338341,-1.88598 0.371476,-2.72227 0.125989,-3.18088 -0.398739,-0.745 -0.08461,-2.54814 0.474829,-2.7257 0.612396,-0.19445 0.942976,-1.15511 1.070229,-3.11053 0.394337,-6.05922 0.43972,-6.39367 0.883441,-6.50972 0.278283,-0.0728 0.503674,-0.46303 0.636866,-1.10269 0.265412,-1.27486 0.143261,-1.65373 -0.433624,-1.34497 -0.796615,0.42634 -1.255419,0.0282 -1.121183,-0.97244 l 0.120344,-0.89732 -1.009689,1.05378 c -0.555323,0.5796 -1.009701,1.19785 -1.009707,1.37395 -1.3e-4,0.17617 -0.39428,0.96922 -0.876171,1.76251 -0.574029,0.94496 -0.876176,1.73522 -0.876182,2.29163 0,1.30527 -0.37029,1.99897 -1.376085,2.57782 -0.956545,0.55053 -2.004054,1.9145 -3.36114,4.37657 -0.462806,0.83964 -0.687232,1.47701 -0.537654,1.52686 0.438139,0.14603 0.293297,1.61135 -0.203716,2.06115 -0.253276,0.22923 -0.529865,0.82739 -0.614671,1.32927 -0.191749,1.13482 -0.558257,1.64123 -1.262751,1.74467 -0.435486,0.0641 -0.851329,0.69691 -2.058898,3.13425 -1.319531,2.66333 -1.498484,3.18424 -1.398517,4.0711 0.152237,1.35051 -0.233971,2.04279 -1.139624,2.04279 -0.575914,-2e-5 -0.767331,0.14891 -1.044066,0.8109 -0.186895,0.44717 -0.286693,1.19746 -0.222682,1.67269 0.143544,1.06531 -0.667093,2.53453 -1.398455,2.53453 -0.286919,3e-5 -0.533534,0.20162 -0.611543,0.49994 -0.07191,0.27496 -0.424987,1.05457 -0.784592,1.73245 -1.726359,3.2541 -2.347075,4.49321 -3.190981,6.37009 -0.502319,1.11712 -1.263451,2.37754 -1.691453,2.80094 -0.427978,0.42341 -0.962252,1.28365 -1.187237,1.91166 -0.224996,0.62802 -0.569445,1.43757 -0.765451,1.79899 -0.196039,0.36143 -0.277774,0.65711 -0.181758,0.65713 0.09607,-3e-5 -0.06011,0.24983 -0.34709,0.55538 -0.286975,0.30538 -0.462186,0.61501 -0.389369,0.68784 0.0727,0.0729 -0.180573,0.44536 -0.563056,0.82784 -0.382483,0.38271 -0.767855,0.92353 -0.856335,1.20232 -0.08845,0.27884 -0.331963,0.64885 -0.541098,0.82242 -0.338116,0.28054 -0.363573,0.22974 -0.229682,-0.45608 0.08281,-0.42448 0.210603,-1.08428 0.28404,-1.46604 0.07338,-0.38158 0.01976,-0.76451 -0.119498,-0.85049 -0.139141,-0.0858 -0.252937,-0.0339 -0.252994,0.11047 1.58e-4,0.14671 -0.107474,0.20095 -0.238938,0.11956 -0.131408,-0.0813 -0.239673,0.0452 -0.240407,0.28449 -7.79e-4,0.23764 -0.166009,0.74781 -0.367129,1.13344 -0.201119,0.38553 -0.308763,0.8494 -0.239221,1.0306 0.118707,0.30995 -1.191764,1.73315 -1.59608,1.73315 -0.102112,-1.1e-4 -0.18571,-0.26247 -0.18554,-0.58337 z m 3.436586,-8.62897 c 0.08162,-0.21264 0.04177,-0.3086 -0.09415,-0.22478 -0.12994,0.0804 -0.236229,0.24718 -0.236229,0.37086 -6e-6,0.34365 0.171259,0.26795 0.330213,-0.14575 z m 39.69525,-37.86237 c 0.08128,-0.13141 0.03387,-0.23894 -0.105498,-0.23894 -0.139198,-9e-5 -0.253051,0.10753 -0.253051,0.239 1.41e-4,0.1314 0.04742,0.23888 0.105499,0.23888 0.05791,2.6e-4 0.171824,-0.10753 0.25305,-0.23894 z m -5.131634,-16.12247 c -0.303119,-0.36521 -0.03613,-1.29135 0.53788,-1.86529 0.353639,-0.35364 0.395127,-0.51367 0.169453,-0.65316 -0.235721,-0.14569 -0.210376,-0.55684 0.119667,-1.94319 0.230246,-0.96715 0.55758,-2.56492 0.727383,-3.55062 0.169792,-0.9857 0.46958,-2.42791 0.666105,-3.20492 0.420358,-1.66193 0.327278,-2.15681 -0.33868,-1.80041 -0.24972,0.13367 -0.454057,0.44108 -0.454057,0.68326 2.2e-5,0.24215 -0.161268,0.57412 -0.358437,0.73772 -0.197168,0.16364 -0.358436,0.39845 -0.358436,0.5219 -1.64e-4,0.21094 -1.343064,3.18177 -2.032627,4.4962 -0.172389,0.32858 -0.331399,0.67497 -0.353357,0.76976 -0.146817,0.63341 -0.617447,1.61982 -0.772867,1.61982 -0.10262,3e-5 -0.186557,0.16719 -0.186557,0.37153 -1.58e-4,0.20439 -0.22144,0.85771 -0.492158,1.4519 -0.496957,1.09084 -0.544993,2.0146 -0.105217,2.02381 0.131408,0.003 0.462016,0.21455 0.734597,0.47065 0.272581,0.2561 0.568311,0.39304 0.657169,0.30414 0.08879,-0.0888 0.161438,-0.0361 0.161494,0.11729 1.1e-5,0.37735 0.714948,0.35765 0.724138,-0.0198 0.0039,-0.1642 0.126835,-0.0927 0.272976,0.15907 0.256832,0.44243 0.276419,0.44311 0.586046,0.0198 0.205635,-0.28122 0.239785,-0.53512 0.09545,-0.70914 z m 142.114023,59.59365 c -0.2303,-0.13401 -0.41884,-0.15783 -0.41884,-0.0508 -0.001,0.10493 -0.20207,-0.13175 -0.44705,-0.52558 -0.44085,-0.7091 -2.42173,-3.11461 -3.36541,-4.08743 -0.26812,-0.27647 -0.48826,-0.60953 -0.48826,-0.73966 1.7e-4,-0.13034 -0.22805,-0.44142 -0.50633,-0.69173 -0.27885,-0.25029 -0.86634,-1.01605 -1.30601,-1.70152 -0.43972,-0.68549 -0.99137,-1.44759 -1.22591,-1.69365 -0.23481,-0.24622 -0.5543,-0.65303 -0.711,-0.90438 -0.25739,-0.4137 -0.28618,-0.4172 -0.2986,-0.0389 -0.0169,0.43763 -0.73087,0.60315 -0.73149,0.1668 -0.002,-0.13632 -0.21619,-0.48093 -0.48036,-0.76427 -0.26417,-0.28336 -0.88255,-1.13459 -1.37397,-1.89134 -0.63853,-0.98271 -1.04607,-1.37887 -1.42669,-1.38623 -0.63824,-0.0124 -1.61759,-1.7055 -1.52988,-2.64479 0.0339,-0.37723 -0.14958,-0.79166 -0.4939,-1.10635 -0.30256,-0.27654 -0.78727,-0.81166 -1.07718,-1.18892 -0.29013,-0.37684 -0.90484,-1.10478 -1.36646,-1.61687 -0.46173,-0.51214 -0.78252,-1.02289 -0.71326,-1.13508 0.0694,-0.11216 -0.0169,-0.20885 -0.18684,-0.2137 -0.17216,-0.005 -0.68503,-0.32796 -1.14005,-0.71689 -0.45496,-0.38892 -0.96225,-0.70715 -1.12701,-0.70714 -0.16483,-2.4e-4 -0.66224,-0.1729 -1.10534,-0.38424 -0.92471,-0.4409 -1.48037,-1.63494 -1.24951,-2.68511 0.13096,-0.59743 -0.0452,-0.84705 -1.69159,-2.37503 -1.01102,-0.93909 -1.91727,-1.65859 -2.01385,-1.59888 -0.096,0.0597 -0.59088,-0.39942 -1.09851,-1.0203 -1.81154,-2.21586 -2.86427,-3.18694 -3.28124,-3.02691 -0.26474,0.10126 -0.5656,-0.0606 -0.8988,-0.48448 -0.66579,-0.8467 -0.80312,-0.63761 -0.32626,0.49724 0.2128,0.50706 0.65986,1.78224 0.99357,2.83356 0.33417,1.05123 0.69548,2.12666 0.80392,2.38962 0.1112,0.26225 0.48036,1.3919 0.82541,2.50912 0.34602,1.11696 0.7293,2.21789 0.85354,2.44611 0.3161,0.58013 0.28562,0.66791 -0.17386,0.49194 -0.3082,-0.11837 -0.36295,-0.0574 -0.23877,0.26592 0.0909,0.23007 0.15805,0.52523 0.16313,0.65237 -6.2e-4,0.12859 0.0937,0.1755 0.20885,0.1042 0.11515,-0.0712 0.34263,0.37961 0.5052,1.00151 0.4781,1.8284 0.79296,2.65837 0.98624,2.6099 0.0999,-0.0248 0.67199,0.37701 1.27146,0.89335 1.25413,1.08005 1.35681,1.62817 0.56813,3.03186 l -0.52213,0.92934 0.47585,0.65643 c 0.51761,0.71458 1.21546,2.16949 2.49206,5.19662 0.1112,0.26292 0.42222,0.98279 0.69221,1.5999 0.26981,0.61706 0.49108,1.25107 0.49108,1.40895 0,0.4383 -1.19209,-0.94454 -1.21366,-1.40807 -0.0113,-0.24814 -0.066,-0.29025 -0.13886,-0.10708 -0.19699,0.48871 -0.49616,0.34156 -0.66381,-0.32705 -0.0864,-0.34388 -0.22127,-0.56137 -0.29973,-0.4824 -0.0779,0.0794 -0.38327,-0.366 -0.67713,-0.98738 -0.46682,-0.98855 -1.40203,-2.07019 -1.79947,-2.08208 -0.0739,-0.004 -0.52834,-0.32661 -1.01062,-0.72091 -0.69362,-0.56705 -0.88813,-0.90412 -0.93063,-1.61298 -0.0339,-0.53314 -0.17555,-0.89603 -0.35505,-0.89604 -0.16652,-0.002 -0.41884,-0.21862 -0.56165,-0.48545 -0.14281,-0.26733 -0.43915,-0.45501 -0.65783,-0.41815 -0.26473,0.0474 -0.61267,-0.33022 -1.04274,-1.12745 -0.35448,-0.65718 -0.75458,-1.31782 -0.88948,-1.468 -0.13435,-0.15027 -0.18966,-0.32835 -0.12362,-0.39536 0.0672,-0.0671 -0.14225,-0.54177 -0.46569,-1.05424 -0.32344,-0.51265 -0.78782,-1.49437 -1.03218,-2.18164 -0.3257,-0.91667 -0.68741,-1.41831 -1.35726,-1.88264 -1.63199,-1.13098 -1.90479,-2.30746 -0.98471,-4.24653 0.34376,-0.72411 0.34376,-0.86152 0.002,-1.52233 -0.20659,-0.39953 -0.37537,-0.98431 -0.37763,-1.29916 2.3e-4,-0.31542 -0.32682,-1.02372 -0.72517,-1.57448 -0.39964,-0.55052 -0.66003,-1.10684 -0.57965,-1.23635 0.17555,-0.28398 -0.37932,-1.88741 -1.45751,-4.21386 -0.43859,-0.94585 -1.14903,-2.55878 -1.57847,-3.58436 -0.46851,-1.11873 -0.81628,-1.69198 -0.86849,-1.4332 -0.10612,0.52286 -0.51818,0.4247 -0.86657,-0.20665 -0.14168,-0.25497 -0.39061,-0.54974 -0.55487,-0.65483 -0.16426,-0.1051 -0.2986,-0.31638 -0.2986,-0.46947 2.2e-4,-0.28048 -1.09676,-2.63637 -2.9735,-6.38863 -0.55882,-1.11713 -1.07898,-2.4303 -1.15535,-2.91829 -0.0779,-0.48759 -0.45383,-1.5635 -0.84134,-2.38953 -0.38609,-0.82631 -0.85065,-1.86187 -1.03213,-2.30134 -0.23256,-0.56261 -0.67149,-0.97282 -1.48285,-1.38696 -0.81786,-0.4172 -1.25176,-0.825 -1.49352,-1.40376 -0.394,-0.94254 -0.45045,-2.40764 -0.10217,-2.62325 0.13152,-0.0813 0.23877,-0.39783 0.23877,-0.70351 -1.7e-4,-0.69649 -0.73262,-3.00025 -0.95356,-3.00038 -0.0903,2.9e-4 -0.29578,-0.45694 -0.45608,-1.01554 -0.16144,-0.55831 -0.39118,-1.32972 -0.51198,-1.71387 -0.1524,-0.48058 -0.13039,-0.81589 0.0666,-1.0753 0.15692,-0.20727 0.1891,-0.29437 0.0706,-0.1935 -0.30538,0.26022 -0.88119,-1.12951 -1.4342,-3.46379 -0.19248,-0.80517 0.2907,-0.63326 1.00808,0.36097 1.05431,1.46069 1.73213,2.19672 1.73213,1.88092 0,-0.91589 1.5678,0.70058 2.14051,2.20697 0.13321,0.3445 0.32175,0.61394 0.42279,0.59734 0.70665,-0.11515 1.30228,0.13897 2.06685,0.88151 0.77349,0.75155 0.86205,0.95242 0.72934,1.65981 -0.12869,0.68515 -0.0395,0.92212 0.60364,1.59431 0.41489,0.43424 0.90789,1.07627 1.09541,1.42674 0.1874,0.35048 0.69192,0.7548 1.12154,0.8984 1.04595,0.34986 1.93256,1.72198 1.80708,2.79661 -0.0508,0.44294 -0.001,0.80532 0.11233,0.80534 0.197,-1.6e-4 1.13667,1.01755 1.80234,1.95173 0.17216,0.24119 0.35675,0.66818 0.41093,0.94885 0.11403,0.60106 0.81639,1.43732 1.07147,1.27963 0.0977,-0.0607 0.29522,-0.57709 0.43916,-1.14818 0.33981,-1.3495 1.08807,-2.30778 1.68098,-2.15273 0.5989,0.15676 1.22275,-1.08593 1.22275,-2.43664 -1.7e-4,-0.7683 0.14845,-1.15477 0.63,-1.63598 0.34658,-0.34647 0.8279,-0.62996 1.06978,-0.62996 0.24215,4e-5 0.61103,-0.26135 0.82022,-0.58064 0.34884,-0.53201 0.34772,-0.63038 -0.0113,-1.17484 -0.52044,-0.79418 -0.0875,-1.51456 1.10336,-1.83621 0.70389,-0.19016 0.8944,-0.37356 1.01514,-0.97737 0.18232,-0.91228 1.86099,-2.66146 2.36748,-2.4671 0.21619,0.083 0.30989,0.32158 0.23595,0.60335 -0.19982,0.7636 0.49391,0.3174 0.87159,-0.56046 0.70175,-1.63203 1.97676,-2.12991 2.12674,-0.83049 0.0395,0.36064 0.16934,0.65472 0.28111,0.65504 0.11289,1.6e-4 -0.0564,0.66561 -0.37424,1.47906 -0.31893,0.81352 -0.57966,1.65721 -0.57966,1.87494 -2.8e-4,0.46998 -0.65229,1.83494 -0.97099,2.03191 -0.12249,0.0762 -0.22353,0.35776 -0.22353,0.62568 1.1e-4,0.81184 -0.70327,2.02997 -1.33925,2.31976 -0.32965,0.15021 -0.53342,0.38017 -0.45214,0.51101 0.0819,0.13056 0.0169,0.23793 -0.14563,0.23793 -0.16088,-1.8e-4 -0.22184,0.0706 -0.13548,0.1572 0.0864,0.0865 0.0226,0.32011 -0.13942,0.51942 -0.25175,0.30713 -0.21901,0.34218 0.2145,0.23053 0.59167,-0.15212 1.35929,0.24385 0.86284,0.44531 -0.19982,0.081 -0.2986,0.6879 -0.2986,1.8353 1.7e-4,0.94273 -0.10556,2.0828 -0.23482,2.5334 -0.27264,0.95005 -1.58604,2.4035 -2.17218,2.40349 -0.22127,3e-5 -0.54471,0.17228 -0.71992,0.38327 -0.26586,0.32045 -0.25966,0.48708 0.0339,1.01563 0.26078,0.46517 0.30481,0.91659 0.16708,1.7076 -0.22409,1.28714 -0.22353,1.24499 -0.0565,2.74801 0.12757,1.13935 1.00171,3.2259 1.35117,3.22594 0.0914,1.1e-4 0.95011,1.04842 1.90936,2.32983 0.9592,1.28141 1.81177,2.38361 1.89452,2.44931 0.16652,0.13226 1.33993,1.77868 2.25431,3.16306 0.69746,1.05657 2.27057,2.66475 3.51844,3.59769 0.49108,0.36701 0.89259,0.82838 0.89259,1.02524 -1.2e-4,0.45547 0.75441,1.50474 2.27011,3.1565 0.6571,0.71623 1.16066,1.46131 1.11906,1.65572 -0.0395,0.19446 0.0339,0.28629 0.16369,0.20529 0.13209,-0.0815 0.90422,0.63357 1.71643,1.58899 0.81233,0.95539 1.80201,2.11348 2.19956,2.57349 0.39739,0.45999 0.9929,1.26646 1.32289,1.79217 0.33021,0.52569 0.85488,1.19506 1.16669,1.48733 0.31159,0.29228 0.55826,0.59305 0.5481,0.66806 -0.0395,0.28821 1.56007,2.0263 1.86522,2.02631 0.17612,-5.1e-4 0.26191,0.0964 0.18966,0.21399 -0.0728,0.11774 0.0282,0.27613 0.22523,0.35109 0.19643,0.0753 0.3573,0.29059 0.3573,0.47749 -0.002,0.18762 0.1541,0.40049 0.34602,0.47302 0.19023,0.0729 0.51479,0.461 0.72297,0.86195 0.32287,0.62441 0.32739,0.72916 0.0282,0.72916 -0.19192,-10e-4 -0.51648,-0.16906 -0.72302,-0.37543 -0.2066,-0.20643 -0.37537,-0.3038 -0.37537,-0.21619 0,0.29217 0.81723,1.54736 1.00734,1.54738 0.10387,10e-4 0.18854,0.13417 0.19023,0.29843 0.003,0.16398 0.48544,0.94177 1.07531,1.72774 0.58992,0.78601 1.07288,1.49156 1.07282,1.56794 0.003,0.0758 0.18854,0.34749 0.4194,0.60203 0.44254,0.48883 1.46282,2.30099 2.74969,4.88396 0.42561,0.85422 0.82739,1.607 0.89349,1.67263 0.18063,0.18074 0.21224,1.67372 0.0339,1.66551 -0.0858,-0.006 -0.34263,-0.11679 -0.57276,-0.25091 z M 58.983274,190.99378 c 0.02145,-2.13569 0.01129,-4.65065 -0.02314,-5.58881 -0.04346,-1.18291 0.04572,-1.87873 0.290757,-2.2701 0.526986,-0.84216 0.745999,-5.08473 0.282346,-5.46954 -0.589766,-0.48944 -0.397384,-1.37405 0.519874,-2.38925 l 0.870425,-0.96345 -0.385023,-1.19204 c -0.450162,-1.39388 -0.276081,-2.09818 0.794594,-3.21481 0.587678,-0.61294 0.728027,-1.02876 0.967772,-2.86749 0.154213,-1.18283 0.364815,-2.25816 0.468056,-2.38958 0.103185,-0.13141 0.40986,-1.4218 0.681537,-2.8675 0.271678,-1.44569 0.610584,-3.21994 0.753196,-3.9428 0.142585,-0.72284 0.406924,-2.06697 0.587424,-2.98696 0.18046,-0.91998 0.438026,-2.15367 0.572364,-2.74154 0.271677,-1.18886 0.166743,-1.58153 -0.186557,-0.6983 -0.155623,0.38903 -0.233802,0.44339 -0.244075,0.16974 -0.0085,-0.22144 0.0801,-0.6532 0.196547,-0.95946 0.11645,-0.30628 0.283927,-1.08928 0.372153,-1.74007 0.08828,-0.65078 0.247124,-1.29433 0.353074,-1.43012 0.10595,-0.13581 0.261009,-0.67702 0.34455,-1.20272 0.0836,-0.52569 0.211732,-1.17259 0.28483,-1.43751 0.120401,-0.43656 -0.04064,-0.50927 -1.720274,-0.77652 -1.964361,-0.31254 -2.905863,-0.77295 -1.580648,-0.77294 0.906184,-1e-5 1.220411,-0.39648 0.64671,-0.816 -0.230416,-0.16844 -0.349292,-0.41889 -0.264284,-0.55645 0.08501,-0.13762 0.0068,-0.30696 -0.174138,-0.37633 -0.180855,-0.0694 -0.373677,-0.51079 -0.428543,-0.98087 -0.10341,-0.88566 0.0062,-1.03511 0.440454,-0.60084 0.179218,0.17928 0.298885,0.0288 0.406811,-0.51084 0.110014,-0.55007 0.04854,-0.84098 -0.218223,-1.03619 -0.326318,-0.2386 -0.290305,-0.37819 0.298095,-1.15453 0.956997,-1.26274 1.057731,-1.27536 4.182884,-0.52371 0.542735,0.13056 0.668701,0.0652 0.787234,-0.408 0.169848,-0.67812 0.164655,-1.19449 -0.0254,-2.53574 -0.139932,-0.9873 -0.122715,-1.02077 0.598001,-1.16492 0.563451,-0.11238 0.742065,-0.27653 0.742065,-0.6803 -1.1e-5,-0.94199 0.518463,-2.13888 1.224074,-2.82566 0.753134,-0.73305 0.825341,-1.13435 0.415617,-2.30976 -0.257397,-0.73837 -0.225335,-0.82298 0.597392,-1.57671 0.593069,-0.5433 0.869381,-1.00378 0.869381,-1.44881 5e-6,-0.77813 0.497408,-2.28777 0.835077,-2.53454 0.132142,-0.0966 0.160535,-0.17718 0.06294,-0.17922 -0.153817,-0.003 0.450783,-1.83922 0.707051,-2.14735 0.267501,-0.32163 0.453493,0.63488 0.29262,1.50493 -0.505085,2.73239 -0.418157,4.04047 0.241422,3.63283 0.206651,-0.12774 0.237076,0.0694 0.115039,0.746 -0.09122,0.50576 -0.244753,1.02714 -0.341108,1.15857 -0.196152,0.2675 -0.237132,0.70421 -0.213142,2.27009 0.02653,1.7236 0.05769,1.86409 0.386942,1.73776 0.244527,-0.0936 0.258808,0.0198 0.06655,0.52512 -0.134738,0.3546 -0.172952,0.76151 -0.08473,0.90424 0.102112,0.16522 0.01581,0.20417 -0.237246,0.1068 -0.340655,-0.13073 -0.39761,0.0327 -0.39761,1.14008 0,0.71096 0.09483,1.35126 0.210715,1.42288 0.120909,0.0747 0.114926,0.57938 -0.01411,1.18425 -0.123675,0.5797 -0.19158,1.5667 -0.150995,2.19329 l 0.07383,1.13926 2.200348,0.61976 c 2.022986,0.56979 3.330562,1.21326 2.46546,1.21326 -0.219577,-1e-5 -0.148793,0.19119 0.213651,0.57696 0.539009,0.57383 0.539404,0.5784 0.05741,0.83635 -0.266541,0.14264 -0.653037,0.25938 -0.858819,0.25932 -0.548436,-2e-5 -0.456653,0.50108 0.119159,0.65178 0.423689,0.11081 0.472402,0.25407 0.344325,1.012 -0.108547,0.64261 -0.04911,0.96593 0.218336,1.18792 0.426849,0.35426 0.110409,1.21066 -0.447284,1.21065 -0.181532,1.4e-4 -0.372943,0.12858 -0.425382,0.28556 -0.0709,0.21264 -0.42685,0.18227 -1.393928,-0.11893 -0.714299,-0.22252 -1.826072,-0.43165 -2.470608,-0.46478 -1.118023,-0.0575 -1.181102,-0.0271 -1.372433,0.65659 -0.110297,0.39428 -0.262195,1.20078 -0.337382,1.79219 -0.07524,0.59138 -0.189661,1.26019 -0.254292,1.48614 -0.06463,0.22595 -0.20874,1.13997 -0.320279,2.03114 -0.263719,2.10698 -1.527656,7.98568 -2.035692,9.46841 -0.21811,0.63651 -0.338455,1.30858 -0.267501,1.49349 0.07118,0.18486 0.03217,0.33619 -0.08614,0.33619 -0.118312,1.4e-4 -0.18379,0.29437 -0.145406,0.65417 0.03838,0.35974 -0.0085,0.8168 -0.103749,1.01558 -0.425495,0.88628 -0.662684,1.91463 -0.441639,1.91462 0.127795,2.3e-4 0.167816,0.10437 0.08902,0.23194 -0.07886,0.12751 0.01581,0.53991 0.21049,0.91634 0.410988,0.7948 0.330721,2.40936 -0.1344,2.70423 -0.175718,0.11137 -0.504238,0.20411 -0.730098,0.20614 -0.238431,0.002 -0.360638,0.13406 -0.291208,0.31498 0.06576,0.1712 -0.05532,0.72988 -0.269194,1.24146 -0.213764,0.51158 -0.438478,1.15107 -0.499384,1.42111 -0.20349,0.9023 -0.284886,1.20786 -0.321746,1.20785 -0.02032,4e-5 -0.07688,0.16133 -0.126158,0.35844 -0.04911,0.19717 -0.264284,1.05739 -0.477878,1.91166 -0.213594,0.85427 -0.430519,1.75624 -0.482167,2.00438 -0.05137,0.24814 -0.252035,1.00085 -0.445364,1.6727 -0.19333,0.67186 -0.404046,1.65168 -0.468339,2.17739 -0.238487,1.95114 -0.891281,4.88945 -1.230943,5.54067 -0.192822,0.36973 -0.351268,0.83985 -0.352115,1.04473 -6.21e-4,0.2049 -0.169114,0.58125 -0.374072,0.83634 -0.343816,0.42803 -0.362895,0.33478 -0.247405,-1.20885 0.06886,-0.91999 0.183903,-1.94153 0.255759,-2.27009 0.0718,-0.32858 0.06328,-0.43611 -0.01919,-0.239 -0.0823,0.19717 -0.300014,0.47889 -0.483861,0.62614 -0.183847,0.14727 -0.53884,1.04687 -0.788837,1.99916 -0.250002,0.9523 -0.567594,1.84447 -0.70573,1.98261 -0.571319,0.57132 -0.800013,-1.57311 -0.440453,-4.13001 0.127456,-0.90614 0.110014,-1.20295 -0.05588,-0.95582 -0.13248,0.19712 -0.242551,0.70792 -0.244583,1.13505 -0.002,0.42713 -0.1112,0.77662 -0.242664,0.77662 -0.131408,1.4e-4 -0.23956,0.45699 -0.240237,1.01556 -7.62e-4,0.55854 -0.101774,1.39193 -0.224601,1.85193 -0.122772,0.45998 -0.283419,1.41101 -0.356913,2.11337 -0.142923,1.36498 -0.269137,1.70995 -0.625988,1.70995 -0.132819,-6e-5 -0.208683,-1.58898 -0.185483,-3.88307 z m 110.962306,1.07945 c -0.67149,-0.17013 -1.06486,-0.77941 -1.07361,-1.66274 -0.0169,-1.49371 1.09642,-1.30734 2.01599,0.33795 0.47641,0.85268 0.5481,1.1495 0.31271,1.29884 -0.32795,0.20829 -0.52043,0.21196 -1.25497,0.026 z M 42.952539,190.52996 c -0.01016,-0.35364 -0.126384,-0.70948 -0.258018,-0.79067 -0.470088,-0.29053 -0.225278,-0.78835 0.573769,-1.16756 1.018592,-0.48335 0.989612,-0.48702 1.036102,0.13034 0.04798,0.63554 -0.364928,1.45485 -0.645621,1.28137 -0.113627,-0.0702 -0.314803,0.16872 -0.447057,0.531 l -0.240519,0.65862 z m 65.439021,-1.6868 c -0.0593,-0.21574 -0.24159,-1.68182 -0.3336,-2.6883 -0.0604,-0.65714 -0.17216,-1.81776 -0.24836,-2.57919 -0.23764,-2.3649 -0.2907,-3.10985 -0.32457,-4.54977 -0.0226,-0.98643 -0.11854,-1.36523 -0.324,-1.29663 -0.20039,0.0665 -0.29127,0.68549 -0.2845,1.93157 0.0113,1.86577 -0.19361,2.35753 -0.48882,1.18244 -0.0993,-0.39298 -0.0615,-0.68509 0.0937,-0.73676 0.41375,-0.13773 0.29578,-0.45773 -0.21789,-0.59229 -0.99323,-0.25971 -1.20395,-2.47816 -0.25852,-2.72531 0.28449,-0.0745 0.39964,-0.26717 0.32682,-0.54782 -0.0621,-0.23809 0.0113,-0.66586 0.1637,-0.95051 0.17103,-0.31914 0.19361,-0.6264 0.0593,-0.80108 -0.69384,-0.90353 -1.20937,-2.87113 -1.41772,-5.42173 -0.0705,-0.85428 -0.27602,-1.76531 -0.45665,-2.02459 -0.21676,-0.31124 -0.32626,-1.17454 -0.32796,-2.5395 -1.6e-4,-1.51436 -0.0926,-2.1451 -0.34601,-2.35553 -0.59958,-0.49735 -0.91822,-1.82164 -0.58925,-2.44778 0.15862,-0.30216 0.4194,-0.62704 0.57897,-0.72198 0.18007,-0.10691 0.35505,-1.13589 0.46004,-2.70419 0.14112,-2.10674 0.10612,-2.62837 -0.20828,-3.10818 -0.57723,-0.88065 -0.70508,-3.68041 -0.22523,-4.93236 0.51254,-1.33784 0.57599,-2.46468 0.20773,-3.69901 -0.3686,-1.24508 -0.2241,-2.05742 0.50294,-2.78476 0.55261,-0.55279 0.56751,-0.6769 0.6182,-5.20317 0.0395,-3.78629 0.12418,-4.7684 0.44537,-5.35376 0.27037,-0.4925 0.41318,-1.42717 0.45608,-2.98698 0.0965,-3.52189 0.15241,-4.2831 0.32457,-4.45567 0.0881,-0.088 0.0564,-0.28771 -0.0779,-0.44327 -0.15523,-0.18707 -0.14564,-0.76089 0.0226,-1.68102 0.14225,-0.76852 0.1987,-1.69491 0.12588,-2.05872 -0.21506,-1.07513 0.23313,-0.99121 0.55769,0.10449 0.16596,0.5538 0.49335,1.43785 0.73065,1.96358 0.23764,0.52564 0.50689,1.35808 0.59907,1.84982 0.0909,0.49199 0.24949,0.84266 0.35392,0.77865 0.10273,-0.0632 0.25965,0.27331 0.34884,0.74834 0.0864,0.47568 0.24949,1.03929 0.359,1.25301 0.11007,0.21371 0.4956,1.46404 0.8572,2.77835 0.67143,2.44042 1.06154,3.28339 1.06159,2.29789 2.3e-4,-0.30013 0.1191,-0.50599 0.26417,-0.45761 0.26925,0.0898 0.97963,1.86343 0.74594,1.8635 -0.0705,2.3e-4 0.0395,0.18842 0.24837,0.41816 0.20716,0.23002 0.45044,0.71396 0.54076,1.07536 0.0909,0.36125 0.25965,0.65713 0.37706,0.65711 0.11741,8e-5 0.21281,0.21133 0.21281,0.46947 2.2e-4,0.25818 0.20151,0.57824 0.45044,0.71056 0.37255,0.19937 0.60454,0.65769 0.85359,1.68746 0.0169,0.0657 0.27884,0.7646 0.58388,1.55318 0.86832,2.24377 0.96157,2.66815 0.65721,2.99786 -0.21055,0.22844 -0.20151,0.25639 0.0395,0.12007 0.1987,-0.11273 0.29522,-0.0592 0.26192,0.14416 -0.0282,0.17747 0.12531,0.72249 0.34206,1.21124 0.21732,0.4886 0.39513,1.05848 0.39739,1.26574 -0.003,0.20857 0.16256,0.69437 0.36351,1.08042 0.19982,0.38638 0.34433,0.73055 0.32062,0.76475 -0.11571,0.16928 0.33304,2.08051 0.67431,2.86995 0.25401,0.58778 0.54415,0.89613 0.84388,0.89609 0.60358,2e-5 1.78863,2.58741 1.98517,4.33445 0.079,0.7046 0.27998,1.49613 0.44763,1.75846 0.16651,0.26276 0.43802,1.01555 0.60539,1.67267 0.16482,0.6578 0.39794,1.46402 0.51535,1.79263 0.11741,0.32864 0.27829,1.02751 0.35675,1.55326 0.0785,0.52569 0.2811,1.27841 0.45044,1.6727 0.28619,0.66726 0.80905,2.40447 0.84439,2.80463 0.0113,0.0975 0.22127,0.65096 0.46907,1.23252 0.24893,0.58099 0.38948,1.12007 0.30933,1.19844 -0.0779,0.0776 -0.0169,0.14083 0.13716,0.14139 0.15354,-2.5e-4 0.27885,0.15817 0.27885,0.35161 -7.4e-4,0.19356 0.2653,0.94557 0.58433,1.67266 0.32119,0.72667 0.54189,1.32116 0.49109,1.32103 -0.0508,6.1e-4 0.17724,0.61855 0.51028,1.37404 1.46959,3.34729 1.58813,3.7634 1.44627,5.08335 -0.0926,0.86253 -0.003,1.52959 0.31272,2.33357 0.24328,0.61924 0.50463,1.414 0.58078,1.76618 0.0768,0.35188 0.31441,0.81676 0.53003,1.03241 0.5131,0.51299 0.93894,1.77897 0.92912,2.76087 -0.006,0.86641 -0.45384,1.20418 -0.70446,0.53444 -0.66172,-1.76943 -0.8301,-2.08385 -0.84331,-1.57704 -0.006,0.28793 -0.11572,0.58668 -0.24046,0.66384 -0.26361,0.16285 -0.78631,-0.69183 -0.56108,-0.91695 0.083,-0.083 0.0226,-0.15088 -0.12814,-0.15088 -0.15353,2.5e-4 -0.27885,-0.10753 -0.27885,-0.23889 -1.6e-4,-0.1314 -0.18796,-0.44632 -0.41827,-0.69973 -1.04228,-1.14854 -1.05058,-1.16377 -1.84874,-3.42227 -0.28223,-0.7989 -0.53172,-1.13512 -0.84179,-1.1351 -0.66279,1e-5 -1.6934,-1.42195 -1.41184,-1.94802 0.16934,-0.31791 0.0395,-0.68399 -0.54076,-1.50608 -0.42109,-0.59729 -0.89389,-1.08606 -1.05081,-1.08606 -0.15636,-1e-4 -0.46964,-0.4032 -0.69531,-0.89615 -2.01554,-4.40074 -3.63449,-6.92574 -4.65973,-7.26748 -0.28562,-0.0952 -0.63813,-1.25842 -0.96552,-3.18687 -0.38722,-2.28273 -0.94322,-4.68032 -1.1926,-5.14657 -0.1383,-0.25796 -0.44537,-0.4689 -0.68256,-0.4689 -0.32005,2e-5 -0.54414,-0.37068 -0.86572,-1.43376 -0.24046,-0.78813 -0.52721,-1.43372 -0.64129,-1.43371 -0.11402,1.4e-4 -0.31384,0.29578 -0.4448,0.65711 -0.13096,0.36143 -0.34489,0.8722 -0.47528,1.13505 -0.13039,0.26293 -0.27941,1.79898 -0.33134,3.41361 -0.0593,1.85408 -0.20321,3.06722 -0.39061,3.29264 -0.19136,0.23058 -0.33699,1.56331 -0.41206,3.76619 -0.0965,2.84382 -0.0508,3.53428 0.27376,4.16294 0.56644,1.09562 0.48206,1.84218 -0.29183,2.61712 -0.82152,0.82149 -1.04217,2.08058 -0.79296,4.52453 0.1366,1.33951 0.10838,1.67955 -0.13152,1.5874 -0.16821,-0.0645 -0.30764,-0.0248 -0.31046,0.0877 -0.005,0.11317 -0.1033,0.90371 -0.22409,1.75799 -0.2399,1.69675 -0.57649,5.60544 -0.5402,6.27266 0.0169,0.32434 -0.36577,0.63509 -0.44197,0.35849 z m 4.0045,-45.61974 c -0.16257,-1.0884 -0.92686,-3.39363 -1.18871,-3.57254 -0.11628,-0.0805 -0.20547,-0.24165 -0.19813,-0.35838 0.0339,-0.53286 -0.55205,-2.25581 -1.22783,-3.62283 -0.74859,-1.50922 -1.26288,-1.82004 -1.24312,-0.75129 0.0226,1.29531 0.3765,4.26489 0.5967,5.0237 0.13095,0.44553 0.2478,1.32398 0.2636,1.95123 0.0169,0.62723 0.12362,1.19909 0.2399,1.27099 0.11628,0.0719 0.15241,0.22646 0.0802,0.34342 -0.20038,0.32463 0.40698,1.15599 0.74911,1.0247 0.16595,-0.0637 0.48713,-0.0118 0.71416,0.11543 0.66957,0.37453 1.36172,-0.43751 1.21456,-1.42443 z m -27.359306,44.3652 c 0.005,-0.39428 0.0587,-0.52664 0.119102,-0.29414 0.0604,0.23251 0.05645,0.5551 -0.01129,0.71687 -0.06548,0.16178 -0.115152,-0.0282 -0.110071,-0.42267 z m 76.176646,-0.68313 c -0.45779,-0.30984 -1.10088,-0.64732 -1.42952,-0.74961 -0.32852,-0.1025 -1.06193,-0.50418 -1.62972,-0.89312 -1.4723,-1.00852 -1.57492,-0.56702 -0.16257,0.69835 l 1.19475,1.07028 -1.70509,-0.85879 c -0.9378,-0.47235 -1.83812,-1.01902 -2.00063,-1.21488 -0.16257,-0.19593 -0.42787,-0.35612 -0.58982,-0.35618 -0.162,1.2e-4 -0.5845,-0.26874 -0.93887,-0.5974 -0.35449,-0.32857 -0.69712,-0.59743 -0.76175,-0.59739 -0.0644,2.5e-4 -0.35449,-0.22438 -0.64496,-0.49871 -0.65653,-0.62049 -2.2363,-1.44864 -2.62613,-1.37658 -0.63756,0.11764 -1.86358,-0.34161 -2.20243,-0.82532 -0.19757,-0.28167 -0.359,-0.91457 -0.359,-1.40634 0,-0.60635 -0.13491,-0.96687 -0.41827,-1.12005 -0.2303,-0.12418 -1.17929,-0.9882 -2.10941,-1.92008 -1.19408,-1.19626 -1.86675,-1.69429 -2.28818,-1.6943 -0.93482,1e-5 -2.26938,-1.70667 -1.96164,-2.50859 0.10048,-0.2618 -0.1541,-0.70559 -0.76643,-1.33153 -0.50407,-0.51637 -0.99657,-0.93898 -1.09405,-0.93898 -0.25457,7e-5 -3.78328,-3.65708 -3.80439,-3.9428 -0.0113,-0.13124 -0.15636,-0.31655 -0.3257,-0.41121 -0.32231,-0.18029 -2.64176,-3.62387 -3.24918,-4.82366 -0.19361,-0.38214 -0.53963,-0.74417 -0.7701,-0.80444 -0.23708,-0.0623 -0.41827,-0.33557 -0.41827,-0.63161 -6e-5,-0.87269 -0.53963,-1.73042 -1.25939,-2.00216 -0.40754,-0.15382 -0.79014,-0.54296 -0.94982,-0.96599 -0.1558,-0.40608 -0.58914,-0.86185 -1.02265,-1.06861 -0.41714,-0.1992 -0.92578,-0.71942 -1.13667,-1.16384 -0.20998,-0.44197 -0.70784,-1.12381 -1.10618,-1.51527 -0.39851,-0.39146 -0.72782,-0.89082 -0.73161,-1.10983 -0.006,-0.21851 -0.13885,-0.45304 -0.30537,-0.51875 -0.16426,-0.0662 -0.19023,-0.12909 -0.0604,-0.13874 0.13547,-0.0107 0.2049,-0.47184 0.15805,-1.05612 -0.0593,-0.74242 0.0339,-1.15319 0.32513,-1.44511 0.2241,-0.22432 0.34659,-0.4693 0.27151,-0.54443 -0.0728,-0.0757 0.0169,-0.2881 0.20039,-0.47347 0.18514,-0.18532 0.27546,-0.49645 0.20095,-0.69148 -0.0756,-0.19491 -0.0282,-0.48753 0.10499,-0.65025 0.13265,-0.16268 0.3765,-0.7526 0.54245,-1.31123 0.16595,-0.55854 0.37481,-1.01556 0.46456,-1.01556 0.21788,3e-5 0.77066,-1.87019 0.62334,-2.10868 -0.23256,-0.37587 0.36239,-2.26362 0.96016,-3.04733 0.39738,-0.52134 0.89468,-0.85773 1.41043,-0.95448 0.43802,-0.0822 0.85675,-0.30695 0.93063,-0.49949 0.0739,-0.1926 0.24273,-0.28314 0.37481,-0.2014 0.13321,0.0817 0.24046,-0.0265 0.24046,-0.24052 0.001,-0.21439 0.30707,-0.83872 0.6829,-1.38811 0.37537,-0.54933 0.64377,-1.21395 0.59596,-1.4768 -0.20942,-1.15057 0.16595,-2.03224 1.12238,-2.63589 0.51931,-0.32785 0.94413,-0.74445 0.94413,-0.92591 -0.002,-0.18097 0.16144,-0.3918 0.35844,-0.46743 0.42391,-0.16268 0.47246,-0.89864 0.0852,-1.28624 -0.2049,-0.20524 -0.14111,-0.23877 0.25683,-0.13462 0.42392,0.1108 0.5148,0.0485 0.45271,-0.31215 -0.0564,-0.31582 0.0835,-0.47365 0.46004,-0.52716 0.29578,-0.0418 0.53737,-0.18373 0.53737,-0.31463 -6e-5,-0.13107 0.37537,-0.63432 0.83428,-1.11842 0.45891,-0.48409 0.83524,-1.02091 0.83637,-1.19294 6.8e-4,-0.17194 0.10273,-0.25046 0.22635,-0.17414 0.12362,0.0762 0.3353,-0.0519 0.47077,-0.28461 0.23482,-0.40325 0.24667,-0.40291 0.25344,0.007 0.004,0.23657 -0.15692,0.74727 -0.3573,1.13505 -0.41489,0.80199 -0.1987,0.89825 0.63101,0.28094 1.05748,-0.78697 2.48789,-0.61346 1.52576,0.18514 -0.197,0.16364 -0.35844,0.55312 -0.35844,0.8656 1.7e-4,0.31243 -0.1191,0.56809 -0.26473,0.5682 -0.14564,-1.6e-4 -0.20603,0.15325 -0.13378,0.34037 0.0756,0.19446 -0.10556,0.49504 -0.42053,0.70168 -0.63028,0.41296 -2.428,3.05912 -3.46605,5.10193 -0.54979,1.08171 -0.67635,1.59278 -0.57988,2.33945 0.0926,0.71595 -0.0339,1.28475 -0.49673,2.26963 -0.86708,1.83789 -1.42127,2.70617 -1.65953,2.59992 -0.21168,-0.0944 -1.06899,1.86662 -1.25859,2.87938 -0.0598,0.31937 -0.15805,0.6607 -0.21845,0.75875 -0.0604,0.0979 0.0113,0.44835 0.162,0.77929 0.21845,0.47912 0.19135,0.80233 -0.12362,1.59392 -0.32682,0.81731 -0.34771,1.13108 -0.11571,1.772 0.20772,0.57963 0.21393,0.97349 0.0169,1.53864 -0.15128,0.43453 -0.16652,0.69898 -0.0339,0.61792 0.12644,-0.0777 0.22918,-0.2903 0.22918,-0.47206 -2.3e-4,-1.19599 1.75871,0.3047 2.02587,1.72871 0.26812,1.42819 1.30284,3.21777 2.52536,4.3676 0.72275,0.67984 1.41953,1.66799 1.88532,2.67426 0.91286,1.97174 2.02858,3.46672 3.97724,5.32793 1.29844,1.24015 2.55494,3.23087 2.45791,3.89419 -0.0113,0.0922 -0.0113,0.44836 0.004,0.79081 0.0339,0.73476 1.62318,2.9184 1.96914,2.70461 0.34715,-0.21444 1.6435,0.37871 1.6435,0.75202 6e-5,0.17464 0.14902,0.40365 0.33191,0.50858 0.54866,0.31599 1.34049,1.9455 1.34427,2.76717 0.003,0.53805 0.25966,1.05597 0.84913,1.72512 0.48149,0.54431 0.73228,0.7222 0.58293,0.41324 -0.42166,-0.87116 -0.0677,-1.05408 0.99239,-0.51327 l 0.96789,0.4938 -0.5131,0.54584 -0.5131,0.54584 0.5989,0.39236 c 0.32908,0.21585 0.75751,0.39236 0.95152,0.39236 0.19417,2e-5 0.4177,0.10459 0.49673,0.23261 0.18571,0.3016 1.35359,0.83269 2.93855,1.33725 1.21496,0.38678 2.08503,1.1475 1.81403,1.58605 -0.0717,0.11583 0.006,0.3752 0.17216,0.57711 0.2478,0.29872 0.24047,0.40761 -0.0395,0.59149 -0.28788,0.1891 -0.26869,0.28201 0.12023,0.57934 0.25514,0.19469 0.58569,0.35392 0.73494,0.35392 0.38835,-1e-4 1.34789,1.07746 1.14254,1.2828 -0.0948,0.0944 0.14506,0.43272 0.53567,0.75027 0.90755,0.74167 0.70192,0.75926 -0.37198,0.0311 z m -4.64557,-2.52689 c -0.0847,-0.14084 -0.26304,-0.25486 -0.3923,-0.25474 -0.1287,-3e-5 -0.0954,0.15043 0.0722,0.33478 0.3432,0.37221 0.56334,0.31712 0.3178,-0.0794 z m -71.284517,1.87534 c 0.01693,-0.31734 0.125311,-0.70351 0.241591,-0.85817 0.11628,-0.15466 0.216755,-0.74607 0.223529,-1.31426 0.0056,-0.56819 0.09483,-1.19436 0.196435,-1.39151 0.101604,-0.19717 0.249494,-0.84233 0.328519,-1.43374 l 0.143939,-1.07532 -0.351663,0.76632 c -0.193612,0.42149 -0.568305,0.88227 -0.833096,1.02397 -0.264735,0.14168 -0.483183,0.49583 -0.484877,0.78691 -0.0047,0.71336 -0.566431,1.73826 -0.91211,1.66429 -0.153535,-0.0327 -0.279411,0.048 -0.279411,0.17922 1.41e-4,0.13141 -0.121361,0.23894 -0.269815,0.23894 -0.274896,2e-5 -0.161438,-1.37721 0.389482,-4.72428 0.0508,-0.29838 -0.01129,-0.48099 -0.132086,-0.40574 -0.128134,0.0793 -0.211675,-0.52806 -0.197563,-1.44237 0.01129,-0.86855 -0.03951,-1.6448 -0.121925,-1.725 -0.08015,-0.0802 -0.145632,0.19468 -0.145632,0.61089 -6e-6,1.1297 -0.349405,0.91129 -0.416577,-0.26022 -0.07451,-1.30643 0.374806,-2.76094 0.904728,-2.92917 0.228101,-0.0722 0.467943,-0.37012 0.532856,-0.66154 0.06491,-0.29144 0.298039,-1.20186 0.518181,-2.02313 0.362952,-1.35546 0.365774,-1.54222 0.02822,-2.02457 -0.550976,-0.78643 -0.469636,-1.92278 0.180629,-2.53399 0.304248,-0.28573 0.669006,-0.51959 0.810744,-0.51959 0.292394,1e-5 0.547532,-0.55052 0.547532,-1.1811 -5.6e-5,-0.23386 0.272638,-1.27346 0.606068,-2.31029 0.333036,-1.03684 0.816219,-2.77213 1.073052,-3.85622 0.256832,-1.08408 0.562773,-2.15938 0.680351,-2.38957 0.633671,-1.24336 0.797987,-1.73303 0.68244,-2.03417 -0.07225,-0.183 -0.03387,-0.86287 0.08185,-1.50957 0.115716,-0.64684 0.265864,-1.49857 0.334164,-1.89286 l 0.124183,-0.71684 -1.612117,-0.0744 c -1.19554,-0.0553 -1.732235,-0.1926 -2.077407,-0.53173 -0.461169,-0.45298 -0.46004,-0.46281 0.08636,-1.04427 l 0.551484,-0.58699 -1.040933,-0.28031 c -0.572595,-0.15416 -1.202709,-0.31272 -1.400397,-0.35234 -0.905687,-0.18148 -1.673649,-0.41692 -1.673644,-0.51304 2.6e-4,-0.0579 0.168211,-0.43103 0.374242,-0.82881 0.347203,-0.67174 0.441413,-0.71203 1.314304,-0.56454 0.751717,0.12701 0.940193,0.086 0.940136,-0.20456 2.26e-4,-0.19988 -0.215062,-0.43159 -0.478103,-0.51502 -0.541888,-0.1721 -0.64807,-0.59739 -0.148455,-0.59742 0.181194,-4e-5 0.472459,-0.17222 0.647218,-0.38321 0.229173,-0.27592 0.571804,-0.34918 1.224046,-0.26175 0.498424,0.0669 0.906025,0.0243 0.906082,-0.0948 -0.0025,-0.11826 -0.233125,-0.21619 -0.517616,-0.21619 -0.649363,-3e-5 -0.342632,-0.34325 0.358436,-0.40123 0.285056,-0.0237 1.162971,-0.10058 1.951587,-0.17114 0.788504,-0.0706 1.613415,-0.13197 1.832936,-0.13638 0.245543,-0.005 0.459476,-0.28246 0.556,-0.72218 0.08636,-0.39276 0.256268,-0.77564 0.378193,-0.85086 0.132649,-0.0816 0.117973,-0.32948 -0.03387,-0.61622 -0.196435,-0.36561 -0.167647,-0.61538 0.119102,-1.05235 0.206595,-0.31508 0.375371,-0.73944 0.375371,-0.94304 -0.0018,-0.20304 0.100475,-0.55673 0.224093,-0.78496 0.48657,-0.90128 1.178324,-2.64596 1.680699,-4.23825 0.290136,-0.91995 0.624809,-1.88778 0.743629,-2.15062 0.333035,-0.73747 0.928604,-2.52061 0.902638,-2.70372 -0.06266,-0.45124 0.06999,-0.72401 0.419399,-0.85817 0.313844,-0.12029 0.366904,-0.0158 0.282234,0.55916 -0.05701,0.38903 -0.01693,0.65384 0.08862,0.58836 0.197563,-0.12209 0.138859,0.58285 -0.171598,2.05585 -0.09709,0.45999 -0.09878,0.76555 -0.0045,0.67905 0.09427,-0.0865 0.200385,-0.30154 0.235947,-0.47799 0.595399,-2.97385 1.968916,-6.71666 2.409031,-6.5642 0.296345,0.10273 0.224657,1.60919 -0.141117,2.94966 -0.151277,0.55402 -0.200386,1.19924 -0.109507,1.43378 0.148455,0.37943 0.20208,0.36109 0.498425,-0.17092 0.182887,-0.32863 0.336422,-0.81788 0.340937,-1.08725 0.01129,-0.48149 0.419404,-1.06337 0.750794,-1.06337 0.092,-1.9e-4 0.11064,0.21614 0.0452,0.47929 -0.0689,0.26361 -0.0113,0.61857 0.13153,0.78895 0.18514,0.22336 0.15184,0.74012 -0.11516,1.85065 -0.2049,0.84748 -0.36464,1.89485 -0.35505,2.32739 0.0113,0.5529 -0.0694,0.73765 -0.274327,0.62211 -0.22748,-0.12825 -0.228609,-0.0962 -0.0019,0.14563 0.204907,0.22167 0.216757,0.44238 0.03951,0.77065 -0.135463,0.25299 -0.167638,0.63972 -0.07225,0.85952 0.286747,0.6585 0.325697,1.08562 0.119667,1.34721 -0.106684,0.13592 -0.429559,1.21486 -0.717493,2.39771 -0.287878,1.18284 -0.669966,2.6345 -0.849128,3.22592 -0.178936,0.59137 -0.386659,1.45168 -0.461733,1.91168 -0.134908,0.83079 -0.12757,0.83901 1.116515,1.23465 0.688875,0.21907 1.601959,0.46958 2.029029,0.55662 0.42731,0.0872 0.77666,0.24419 0.77666,0.34907 1.1e-4,0.25988 -0.61855,0.75495 -0.87092,0.69695 -0.11233,-0.026 -0.50689,0.078 -0.87707,0.23059 -0.370292,0.15246 -0.961345,0.28449 -1.314306,0.29267 -0.566103,0.0135 -0.585182,0.0378 -0.163695,0.20874 0.263041,0.10652 1.048271,0.27185 1.745331,0.36747 0.96298,0.13214 1.24996,0.2631 1.19481,0.54533 -0.0773,0.39586 -0.61917,0.58805 -1.686404,0.59826 -0.527212,0.005 -0.604205,0.0711 -0.388918,0.33049 0.147891,0.17837 0.417142,0.32418 0.598222,0.32418 0.47246,7e-5 0.40585,0.88723 -0.0892,1.1757 -0.231996,0.13519 -0.285055,0.24678 -0.119667,0.2509 0.524957,0.013 0.328517,0.92124 -0.238769,1.10491 -0.953215,0.30859 -2.583282,0.10228 -3.116308,-0.39434 -0.276024,-0.25683 -0.57903,-0.38576 -0.673973,-0.28647 -0.210546,0.21975 -0.493344,1.65308 -0.471894,2.3909 0.01129,0.29566 -0.08467,0.53759 -0.207159,0.53765 -0.12249,1.5e-4 0.03387,0.45033 0.346018,1.00096 0.392869,0.69157 0.530034,1.22711 0.446493,1.73198 -0.156922,0.92596 -0.583659,1.82226 -0.803293,1.68653 -0.263041,-0.16251 -1.11849,0.89136 -1.261357,1.55402 -0.31723,1.47116 -0.413754,1.77204 -0.643492,2.00166 -0.134343,0.13457 -0.244414,0.47037 -0.244414,0.74629 -2.26e-4,0.27608 -0.09878,0.60396 -0.219013,0.72883 -0.120796,0.12486 -0.273766,0.54968 -0.340374,0.94387 -0.269815,1.59872 -0.466813,2.27011 -0.66528,2.27011 -0.115151,-1.2e-4 -0.208853,0.19728 -0.208853,0.43837 -2.25e-4,0.24119 -0.208288,1.07451 -0.463427,1.85192 -0.478668,1.46019 -0.753619,2.58297 -0.785512,3.20566 -0.01129,0.19717 -0.136601,0.43577 -0.281104,0.53037 -0.187967,0.123 -0.177807,0.3091 0.03387,0.6539 0.385531,0.62183 0.378757,1.21953 -0.02258,1.80928 -0.44988,0.66512 -0.682666,1.36408 -0.395691,1.18653 0.129827,-0.0804 0.236512,-0.30098 0.236512,-0.49035 5.6e-5,-0.18944 0.120231,-0.34433 0.266992,-0.34433 0.301426,-1e-5 0.300861,4.5e-4 -0.812832,3.10645 -1.105056,3.08131 -1.291725,3.51048 -1.613697,3.70946 -0.20603,0.1274 -0.212239,0.0497 -0.02258,-0.30233 0.139424,-0.26061 0.317231,-0.83372 0.394563,-1.27359 0.07733,-0.43989 0.228044,-0.91169 0.334728,-1.04848 0.290136,-0.37272 0.496167,-2.01423 0.270944,-2.15374 -0.202079,-0.12497 -1.683465,4.15765 -1.683465,4.86743 -5.7e-5,0.21788 -0.172162,0.64233 -0.383273,0.94326 -0.210546,0.30092 -0.334164,0.80497 -0.273766,1.12014 0.0604,0.31514 0.01693,0.604 -0.09709,0.64187 -0.113457,0.0378 -0.257396,0.33134 -0.318923,0.65218 -0.06153,0.32079 -0.27038,0.74139 -0.463427,0.93462 -0.309328,0.30916 -0.347712,0.28201 -0.321182,-0.22562 z m 14.044326,-56.61252 c -1.7e-4,-0.1314 -0.104991,-0.23956 -0.23877,-0.23893 -0.13152,1.5e-4 -0.238769,0.10781 -0.238769,0.23893 1.13e-4,0.13141 0.104991,0.23968 0.238769,0.239 0.131521,-1.6e-4 0.23877,-0.10781 0.23877,-0.23894 z m 7.693231,56.51347 c 0.005,-0.39428 0.0587,-0.52665 0.1191,-0.2942 0.0604,0.23256 0.0564,0.55509 -0.0113,0.71687 -0.0655,0.16172 -0.11515,-0.0282 -0.11007,-0.42273 z m -0.28562,-2.98699 c 1.7e-4,-0.83243 0.0508,-1.46228 0.11346,-1.39993 0.18006,0.17995 0.21844,2.58155 0.0451,2.75589 -0.0858,0.0865 -0.15805,-0.52349 -0.15748,-1.35592 z m -24.714933,-3.28568 c 0.119102,-0.0985 0.296345,-0.28675 0.394562,-0.41816 0.101604,-0.13637 0.180065,-0.0594 0.181758,0.17922 0.002,0.23245 -0.173291,0.41816 -0.394562,0.4181 -0.219013,2e-5 -0.300917,-0.0807 -0.181758,-0.17922 z m 0.341502,-1.01556 c -1.47e-4,-0.13141 0.107249,-0.23894 0.238713,-0.23894 0.131521,-1.8e-4 0.23877,0.10753 0.23877,0.23894 1.41e-4,0.1314 -0.107814,0.23893 -0.23877,0.23893 -0.131521,1.7e-4 -0.238769,-0.10753 -0.238769,-0.23899 z M 60.278765,160.57281 c -0.277492,-0.27749 -0.298321,-0.50486 -0.09873,-1.07737 0.139141,-0.39908 0.30532,-0.67324 0.369387,-0.60919 0.0639,0.0641 0.374185,0.0186 0.689247,-0.10138 0.315029,-0.12006 0.581503,-0.14004 0.592233,-0.0446 0.115659,1.03275 0.07643,1.54507 -0.130448,1.70273 -0.543412,0.41415 -1.087564,0.46382 -1.421672,0.12971 z M 47.6333,154.57264 c -0.08761,-0.0876 -0.159293,-0.40682 -0.159123,-0.70943 1.1e-5,-0.39078 -0.103975,-0.51017 -0.358437,-0.41246 -0.197168,0.0756 -0.358436,0.0401 -0.358436,-0.0793 -2.8e-5,-0.84847 1.773413,-1.10574 1.987188,-0.28827 0.245035,0.93621 -0.570755,2.0296 -1.111011,1.48934 z m 109.28309,-21.29371 c -5e-5,-0.23364 -0.16708,-0.66624 -0.3748,-0.96023 -0.20603,-0.29454 -0.42787,-0.82692 -0.49222,-1.1831 -0.066,-0.35579 -0.20603,-0.70314 -0.30989,-0.77226 -0.10556,-0.0686 -0.26756,-0.36651 -0.36013,-0.66217 -0.23482,-0.74628 -0.61284,-0.67327 -0.6173,0.11921 -0.005,0.84966 -0.31441,0.40049 -0.86443,-1.25451 -0.21731,-0.65749 -0.46737,-1.24859 -0.55261,-1.31427 -0.0858,-0.0656 -0.30368,-0.60337 -0.48487,-1.19477 -0.20039,-0.66097 -0.36578,-0.91398 -0.42392,-0.65715 -0.19079,0.84259 -0.8476,0.3734 -1.25453,-0.89609 -0.1699,-0.52524 -0.36182,-1.11711 -0.43012,-1.31432 -0.07,-0.19666 -0.10612,-0.43927 -0.0858,-0.53772 0.0226,-0.098 -0.0452,-0.17921 -0.14281,-0.17927 -0.27546,-5e-5 -0.67296,-1.14397 -0.99685,-2.86752 -0.2907,-1.54588 -1.34794,-4.92147 -1.68612,-5.37656 -0.0971,-0.1314 -0.24441,-0.52179 -0.32739,-0.86746 -0.0813,-0.3472 -0.36408,-0.68457 -0.62729,-0.75353 -0.6002,-0.15709 -1.03912,-1.26945 -0.8585,-2.17671 0.0756,-0.38029 0.0282,-0.82593 -0.11063,-0.99045 -0.26304,-0.31661 -0.2303,-0.85832 0.0643,-1.07873 0.0971,-0.0727 -0.13265,-1.04033 -0.51028,-2.15064 -0.69898,-2.05466 -1.46174,-4.90145 -1.59157,-5.93676 -0.0395,-0.315423 -0.19756,-0.649197 -0.34828,-0.743593 -0.15184,-0.09398 -0.25965,-0.212635 -0.23933,-0.263663 0.0226,-0.0508 -0.0768,-0.395804 -0.21676,-0.765868 -0.13998,-0.370121 -0.25683,-0.740174 -0.2557,-0.823292 0.001,-0.08309 -0.27941,-0.442485 -0.62142,-0.799081 -0.50125,-0.522866 -0.66082,-0.998463 -0.82373,-2.454877 -0.1112,-0.993428 -0.30199,-1.99784 -0.42278,-2.232037 -0.12136,-0.234197 -0.17442,-0.640794 -0.11741,-0.903592 0.23651,-1.10044 0.11854,-2.9613 -0.22917,-3.609234 -0.72405,-1.349889 -1.9057,-5.249569 -1.94657,-6.427018 -0.0226,-0.657175 -0.16821,-1.423297 -0.32231,-1.702494 -0.1541,-0.279185 -0.35166,-0.952769 -0.43633,-1.497349 -0.12249,-0.767212 -0.28506,-1.019466 -0.71191,-1.127996 -0.61148,-0.153366 -1.29584,-1.042328 -1.29584,-1.68263 1.7e-4,-0.226182 0.22296,-0.648567 0.4956,-0.93868 l 0.4956,-0.527494 -0.48996,-1.16064 c -0.72675,-1.722058 -1.0661,-3.46836 -0.7167,-3.684393 0.21393,-0.132254 0.18402,-0.630362 -0.12249,-2.05135 -1.00548,-4.657613 -1.19114,-6.209761 -0.76276,-6.37419 0.17216,-0.06604 0.46568,0.05853 0.65218,0.276984 0.43408,0.508472 1.16354,2.044922 1.17048,2.464433 9e-4,0.177807 0.21676,0.590845 0.47246,0.91968 0.25683,0.32852 0.46964,0.76172 0.47246,0.962456 0.001,0.201175 0.32795,0.986744 0.72223,1.746713 0.47811,0.921024 0.71699,1.731451 0.71676,2.430865 2.8e-4,0.635539 0.12927,1.124418 0.32739,1.240235 0.44029,0.25734 0.70937,1.188343 0.39908,1.380279 -0.16877,0.104483 -0.17216,0.298377 -0.0113,0.601755 0.13209,0.246221 0.24216,0.817303 0.2399,1.270496 -2.8e-4,0.452646 0.15862,0.954282 0.35166,1.115251 0.19362,0.160647 0.42222,0.684596 0.50802,1.164376 0.16596,0.927205 0.70141,1.708393 1.17082,1.708426 0.6072,-1.1e-5 1.06069,0.893918 1.19774,2.361148 0.0773,0.829167 0.23934,1.685463 0.359,1.902992 0.37763,0.683428 1.13656,2.527354 1.22546,2.976884 0.17555,0.887754 0.51649,0.473249 0.94497,-1.147668 0.24329,-0.919962 0.4448,-2.120046 0.44819,-2.666811 0.004,-0.597285 0.29239,-1.598762 0.72297,-2.509055 0.57163,-1.208427 0.7167,-1.835369 0.71682,-3.098645 3.3e-4,-1.097911 0.10724,-1.672741 0.3494,-1.873697 0.19192,-0.159462 0.57322,-0.888256 0.84681,-1.61946 0.40247,-1.075755 0.44875,-1.468376 0.24385,-2.057239 -0.20433,-0.588338 -0.18232,-0.767155 0.10894,-0.930692 0.19926,-0.111821 0.36296,-0.333092 0.36296,-0.492102 -0.002,-0.158559 0.20151,-0.414883 0.44762,-0.568734 0.24611,-0.153874 0.52157,-0.574413 0.61216,-0.934706 0.0903,-0.360299 0.37312,-0.919991 0.62758,-1.243808 0.25457,-0.323778 0.46286,-0.679065 0.46286,-0.78948 -3.4e-4,-0.110297 0.32231,-0.905151 0.71687,-1.765951 0.39456,-0.860852 0.71682,-1.670015 0.71688,-1.798165 5e-5,-0.616884 0.42786,-0.108943 0.8148,0.966959 0.40303,1.121663 0.40642,1.276575 0.0452,2.37474 -0.21111,0.646229 -0.3844,1.443996 -0.3844,1.772967 -1.1e-4,0.328971 -0.11177,0.667256 -0.24893,0.751864 -0.13604,0.08444 -0.18515,0.354259 -0.10725,0.599498 0.0773,0.245317 -0.0395,0.796033 -0.26078,1.223899 -0.27829,0.538332 -0.31836,0.805911 -0.12983,0.868641 0.14958,0.04967 0.21111,0.188983 0.13547,0.30961 -0.0745,0.120287 -0.0282,0.218505 0.0993,0.218674 0.13716,1.7e-5 0.0756,0.560233 -0.1462,1.340874 -0.29804,1.048406 -0.32062,1.438622 -0.1016,1.788919 0.1541,0.246389 0.27771,0.883001 0.27997,1.413136 2.3e-4,0.871125 -0.0666,0.978436 -0.6852,1.102077 -0.65174,0.130222 -0.7153,0.261573 -1.30031,2.6823 -0.33812,1.3999 -0.68041,3.121636 -0.76028,3.826085 -0.0796,0.704432 -0.32796,1.559678 -0.55148,1.900503 -0.30369,0.463596 -0.40416,1.134143 -0.39965,2.661997 0.006,1.744681 0.0994,2.216034 0.6418,3.234828 0.54245,1.018281 0.58733,1.245315 0.30877,1.553396 -0.40134,0.443614 -0.15185,0.976623 0.97923,2.092929 0.43295,0.427132 0.87312,0.929073 0.97822,1.115494 0.10274,0.187064 0.81413,0.997051 1.57515,1.801501 0.76135,0.80437 1.56775,1.766154 1.79218,2.137195 0.57491,0.950335 2.38041,3.304525 2.67297,3.485335 0.29917,0.18503 0.32119,1.00235 0.0339,1.18042 -0.11571,0.0713 -0.61453,-0.19096 -1.10821,-0.58328 -0.49391,-0.39242 -0.92844,-0.71339 -0.96609,-0.71339 -0.0395,4.1e-4 0.37142,0.65834 0.90862,1.46309 0.84913,1.27153 2.19984,3.73765 3.48508,6.36277 0.20885,0.42708 0.52439,0.77665 0.70129,0.77656 0.17668,4e-5 0.4798,0.38017 0.67397,0.8448 0.19418,0.46472 0.59981,0.93877 0.90185,1.05351 0.68611,0.26084 1.3493,1.24717 1.3493,2.00679 2.3e-4,0.31706 0.15297,0.70109 0.3353,0.85454 0.18401,0.15286 0.4002,0.53867 0.48036,0.85717 0.0802,0.31915 0.27828,0.53247 0.44141,0.47523 0.7815,-0.27422 1.97129,1.48306 1.75086,2.58566 -0.11741,0.58735 0.0226,0.99043 0.70717,2.01989 0.60956,0.91836 0.78438,1.37 0.61075,1.57929 -0.13378,0.16127 -0.18176,0.52953 -0.10612,0.81842 0.38835,1.49201 -2.00803,-0.21523 -3.75139,-2.66986 -0.45496,-0.64018 -1.04172,-1.39926 -1.3046,-1.68685 -0.26304,-0.28765 -0.79713,-0.94668 -1.18758,-1.46457 -1.10641,-1.4683 -1.39271,-1.7272 -2.10845,-1.90663 -0.3669,-0.092 -0.85093,-0.42437 -1.07531,-0.73845 -0.22353,-0.31412 -1.02614,-1.3974 -1.78185,-2.40734 -0.75565,-1.00996 -1.37397,-1.92298 -1.37397,-2.02896 7.4e-4,-0.10623 -0.25231,-0.19277 -0.56051,-0.19271 -0.73285,2e-5 -1.07616,-0.42719 -2.30438,-2.86749 -0.56221,-1.11711 -1.22766,-2.29997 -1.47862,-2.62854 -0.25119,-0.32857 -0.6532,-0.86089 -0.89322,-1.1831 l -0.43689,-0.5857 0.19361,1.06354 c 0.31723,1.74238 1.03049,4.39979 1.21767,4.53453 0.096,0.069 0.29296,0.65613 0.43859,1.30455 0.1445,0.64871 0.35731,1.29056 0.46907,1.42771 0.11233,0.13689 0.27602,1.05095 0.35618,2.03301 0.083,0.98133 0.22748,1.84156 0.32062,1.91168 0.0931,0.0702 0.18514,0.23499 0.20377,0.36634 0.0169,0.13118 0.10894,0.72284 0.19982,1.3143 0.0909,0.59147 0.21337,1.43491 0.27207,1.87438 0.0587,0.4395 0.41545,1.78362 0.79438,2.98645 0.37537,1.20388 0.8183,2.7793 0.97935,3.50245 0.16426,0.72223 0.60307,2.22875 0.98347,3.34544 0.6506,1.91772 0.85945,4.06231 0.39625,4.06229 -0.10668,-1.2e-4 -0.19418,-0.19107 -0.19361,-0.42482 z m -2.46531,-6.31088 c -0.0745,-0.19102 -0.13265,-0.13389 -0.1445,0.14445 -0.0113,0.25192 0.0452,0.39303 0.12475,0.31367 0.0801,-0.0793 0.0881,-0.28556 0.0169,-0.45801 z m -0.31948,-0.80186 c -0.0779,-0.20287 -0.19249,-0.31751 -0.25514,-0.2548 -0.0627,0.0624 -0.0452,0.22855 0.0452,0.36854 0.23539,0.38124 0.37312,0.30713 0.21112,-0.11391 z m -115.570747,6.99124 c -0.05797,-0.15958 0.01919,-0.61268 0.17188,-1.00695 0.152519,-0.39428 0.259824,-0.97856 0.238431,-1.29839 -0.02145,-0.31983 0.09545,-0.91127 0.259598,-1.31427 0.164147,-0.40303 0.374749,-1.26146 0.467999,-1.90767 0.09325,-0.64622 0.330213,-1.42015 0.526591,-1.71985 0.196322,-0.29968 0.339188,-0.60589 0.3174,-0.68044 -0.118369,-0.40461 0.355952,-2.19096 0.858249,-3.23208 0.317174,-0.6575 0.576693,-1.40468 0.576687,-1.66042 1.1e-5,-0.25582 0.09534,-0.52394 0.211901,-0.59592 0.116506,-0.0721 0.284378,-0.5354 0.372999,-1.02968 0.381128,-2.12547 0.587294,-2.5703 1.380167,-2.97793 0.430631,-0.22138 0.997192,-0.43689 1.259048,-0.47883 0.760642,-0.12193 1.18687,-1.27094 0.867224,-2.33784 -0.299732,-1.00082 -0.0525,-2.86374 0.463032,-3.48466 0.17363,-0.20925 0.691145,-0.55984 1.149971,-0.77909 0.820063,-0.39186 1.20315,-0.94158 2.58094,-3.70347 0.75424,-1.51193 0.907628,-2.36104 0.590731,-3.2701 -0.196209,-0.56215 -0.179105,-1.04703 0.06903,-1.983233 0.551541,-2.080658 0.777118,-2.480441 1.55203,-2.750578 0.543976,-0.189604 0.733936,-0.404102 0.733936,-0.828637 -2.8e-5,-0.315029 0.215062,-0.767421 0.477934,-1.005298 0.262872,-0.237867 0.477934,-0.563959 0.477934,-0.724646 1.86e-4,-0.160703 0.161325,-0.426003 0.358436,-0.589608 0.197169,-0.163582 0.358437,-0.489731 0.358437,-0.724679 1.7e-5,-0.479966 1.174835,-2.381762 1.471339,-2.381762 0.105329,-1.69e-4 0.42335,-0.456992 0.706526,-1.015571 0.283192,-0.55854 0.590381,-1.069331 0.682671,-1.135047 0.09235,-0.06565 0.475902,-0.65714 0.852514,-1.314264 0.376612,-0.65713 0.751667,-1.248555 0.833492,-1.314271 0.08185,-0.06576 0.409577,-0.596246 0.728348,-1.178939 0.318754,-0.58271 0.81807,-1.320525 1.109578,-1.639601 0.29149,-0.319093 0.594462,-0.78322 0.673239,-1.031422 0.07874,-0.248196 0.249833,-0.451291 0.380169,-0.451291 0.130335,1.36e-4 0.18283,-0.08755 0.116675,-0.194571 -0.19666,-0.318247 2.680347,-3.055284 3.369482,-3.205641 0.234592,-0.05137 0.399473,-0.221045 0.366678,-0.377571 -0.03274,-0.156527 0.05419,-0.284492 0.19333,-0.284492 0.139197,9.1e-5 0.199143,-0.08727 0.13327,-0.193668 -0.06593,-0.106459 0.196717,-0.563507 0.583439,-1.015577 0.80371,-0.939499 1.177991,-1.925774 1.390529,-3.664185 0.135529,-1.110317 0.225392,-1.25245 1.026506,-1.629638 0.974743,-0.458855 1.309692,-1.121731 0.927588,-1.835696 -0.65328,-1.221105 0.01242,-2.285024 1.904369,-3.041968 0.520946,-0.208401 0.886168,-0.476918 0.812087,-0.596799 -0.143262,-0.231488 0.781888,-1.881966 1.054791,-1.881977 0.164147,-1.58e-4 1.233602,-2.186468 1.233619,-2.522049 0.0019,-0.101829 0.641189,-0.95935 1.424838,-1.906757 0.783706,-0.947418 1.553667,-2.005234 1.711091,-2.350716 0.157542,-0.345566 0.37633,-0.628178 0.486175,-0.628166 0.109789,-2.04e-4 0.600231,-0.377459 1.089336,-0.838804 0.489167,-0.461338 0.9903,-0.805144 1.11376,-0.764005 0.393998,0.131351 0.411327,1.194908 0.03556,2.135174 -0.200555,0.501077 -0.364533,1.225079 -0.364533,1.608939 -5e-6,0.383837 -0.100814,0.760122 -0.223642,0.83602 -0.266202,0.164486 -1.050444,2.758351 -0.884389,2.924463 0.06373,0.06339 -0.03782,0.549395 -0.22494,1.0797 -0.186895,0.530317 -0.34026,1.273358 -0.34026,1.651105 1.07e-4,0.377741 -0.08066,0.68704 -0.179332,0.687334 -0.09873,1.58e-4 -0.202304,0.331116 -0.230754,0.735173 -0.02822,0.404158 -0.278564,1.102047 -0.556169,1.551086 -0.286184,0.462976 -0.486062,1.153375 -0.461903,1.59467 0.06836,1.24965 0.02371,1.376181 -0.563845,1.599698 -0.681921,0.25926 -1.612738,2.813534 -1.133269,3.109867 0.210828,0.130392 0.182944,0.438478 -0.11103,1.227817 -0.720096,1.93244 -1.09523,3.434159 -1.094575,4.381605 3.56e-4,0.516035 -0.154212,1.308761 -0.343365,1.761616 -0.188983,0.452815 -0.344042,0.971571 -0.344042,1.152652 3.4e-5,0.597697 0.414431,0.342744 0.727259,-0.44734 0.169001,-0.427132 0.441808,-0.937895 0.606327,-1.135046 0.164542,-0.197225 0.487982,-0.842331 0.718961,-1.433751 0.230754,-0.591387 0.67009,-1.379269 0.975873,-1.750773 0.654674,-0.795418 0.694221,-1.183241 0.173799,-1.703718 -0.350364,-0.350252 -0.330664,-0.42273 0.236004,-0.868359 0.492158,-0.387111 0.606463,-0.665647 0.561362,-1.367325 -0.05362,-0.833542 -0.01468,-0.885258 0.72175,-0.956195 0.585555,-0.05645 0.925968,-0.291942 1.37399,-0.951544 0.327786,-0.482167 0.595665,-1.10592 0.595643,-1.386251 2.54e-4,-0.280371 0.215005,-0.78309 0.477934,-1.11726 0.262872,-0.334165 0.477934,-0.817512 0.47799,-1.074118 1.86e-4,-0.256663 0.374241,-0.863205 0.831341,-1.348026 0.457218,-0.48482 1.22045,-1.467647 1.695917,-2.184034 0.475281,-0.71641 0.954175,-1.302564 1.063681,-1.302569 0.109507,-5.7e-5 0.23369,-0.240802 0.27546,-0.535284 0.09257,-0.650582 0.827565,-0.868912 0.845402,-0.251075 0.0047,0.235721 -0.190225,1.064026 -0.438026,1.841494 -0.247801,0.777479 -0.450445,1.627273 -0.450445,1.888609 -1.12e-4,0.261348 -0.265299,1.035932 -0.589585,1.72133 -0.712075,1.505201 -0.981619,2.995297 -0.652862,3.609505 0.336986,0.629736 0.06774,1.801236 -0.4448,1.93528 -0.267557,0.07005 -0.652738,0.725853 -1.041475,1.774632 -0.652258,1.75968 -0.787188,2.83097 -0.356743,2.83097 0.323722,-7.9e-5 0.0508,1.878528 -0.346018,2.365685 -0.356573,0.440228 -0.350026,2.450638 0.01129,2.831648 0.525858,0.558031 0.716681,0.301199 1.014849,-1.367178 0.163583,-0.916192 0.405852,-1.642062 0.537429,-1.61297 0.52422,0.115716 1.22916,-1.229013 1.212734,-2.313675 -0.01129,-0.813837 0.120796,-1.223628 0.548097,-1.684278 0.310457,-0.334842 0.659975,-0.608812 0.777045,-0.608795 0.116845,2.26e-4 0.414883,-0.376273 0.663079,-0.836342 0.247801,-0.459984 0.564467,-0.836353 0.703495,-0.836353 0.274895,9e-5 1.954466,-2.149404 2.200122,-2.815645 0.08354,-0.22573 0.223529,-0.463991 0.31215,-0.529752 0.08862,-0.06582 0.446493,-0.549621 0.795221,-1.075303 0.34884,-0.525688 1.000743,-1.439734 1.448647,-2.031149 0.448187,-0.591442 1.436229,-1.989333 2.19634,-3.106452 1.365106,-2.006272 3.004204,-3.823313 3.448835,-3.823319 0.289007,7.4e-5 0.296909,0.999755 0.01129,1.721212 -0.118538,0.30182 -0.405287,1.462911 -0.636944,2.580036 -0.231431,1.117085 -0.553742,2.192439 -0.716195,2.389579 -0.162567,0.197225 -0.411497,0.786528 -0.553742,1.309743 -0.201515,0.740981 -0.189661,1.020641 0.05645,1.264451 0.257962,0.258243 0.187968,0.657745 -0.387788,2.274609 -0.385531,1.078797 -0.687408,2.176516 -0.670756,2.439371 0.09709,1.534209 -0.02822,2.129202 -0.619276,2.90185 -0.350534,0.459645 -0.663587,1.069974 -0.695705,1.356447 -0.03387,0.28641 -0.06717,0.593813 -0.07846,0.682948 -0.01129,0.08913 -0.168776,0.310908 -0.350534,0.492892 -0.505762,0.505706 -1.255713,2.114786 -1.420989,3.048792 l -0.14789,0.836416 1.065036,-1.153409 c 1.311143,-1.419876 1.910042,-1.433401 1.910042,-0.0429 -2.26e-4,0.587886 -0.203772,1.247488 -0.537937,1.739466 -0.29578,0.435937 -0.537372,0.9491 -0.537372,1.140397 -0.0012,0.191637 -0.104426,0.347768 -0.230867,0.347768 -0.127005,7.9e-5 -0.16934,0.161381 -0.0937,0.358493 0.0762,0.197055 0.02258,0.358493 -0.119667,0.358437 -0.141117,-8.5e-5 -0.202079,0.142358 -0.135472,0.316496 0.06435,0.174702 -0.08128,0.792331 -0.329084,1.374008 -0.599125,1.405398 -0.854546,3.426725 -0.513665,4.063889 0.215626,0.403311 0.146197,0.742302 -0.373112,1.802337 -0.351099,0.718035 -0.665789,1.435252 -0.69881,1.593805 -0.03387,0.158615 -0.184016,0.590985 -0.335858,0.960954 -0.151277,0.369895 -0.275459,0.801018 -0.274895,0.957657 0.001,0.15647 -0.25401,0.768098 -0.564467,1.358451 -0.310456,0.590379 -0.754805,1.664829 -0.987478,2.387679 -0.23256,0.72279 -0.511407,1.42682 -0.619276,1.56437 -0.185145,0.23572 -0.991429,2.33109 -2.244207,5.83102 -0.472458,1.32061 -0.506326,1.61101 -0.235382,2.03113 0.263606,0.40828 0.261348,0.61999 -0.01129,1.2668 -0.181758,0.42719 -0.48657,0.77661 -0.676682,0.77661 -0.528906,0 -0.940007,2.62013 -0.490522,3.12526 0.562209,0.63219 0.388353,1.31842 -0.510842,2.00392 -1.010322,0.77058 -2.737844,2.90034 -2.737805,3.37527 0.0027,0.18458 0.149866,0.33693 0.33281,0.33698 0.331906,1e-5 0.62303,0.49103 0.623171,1.04987 -4e-5,0.40551 -1.396208,1.40231 -2.007921,1.43354 -0.275573,0.0141 -0.823726,0.42126 -1.218006,0.9049 -0.843629,1.03476 -2.415844,3.77453 -2.329836,4.06002 0.06638,0.21935 -0.266034,0.27077 -0.464839,0.072 -0.144503,-0.14451 0.397046,-2.62013 0.730279,-3.33855 0.476241,-1.02664 1.065753,-2.87055 1.140855,-3.56824 0.04346,-0.40314 0.138859,-0.98395 0.212127,-1.29067 0.07502,-0.3139 0.03669,-0.49786 -0.08823,-0.42081 -0.689033,0.42583 -0.826904,-1.36335 -0.265242,-3.44224 0.300239,-1.1116 0.286636,-1.34835 -0.05797,-1.00367 -0.157599,0.15771 -0.480248,0.28675 -0.71685,0.28675 -0.355727,0 -0.427753,-0.19627 -0.416351,-1.13506 0.0073,-0.62428 0.210546,-1.88776 0.451122,-2.80775 0.4216,-1.61252 0.421769,-1.67861 0.005,-1.83715 -0.460718,-0.17538 -0.465234,-0.39942 -0.02879,-1.46402 0.151559,-0.36995 0.275459,-0.83227 0.275742,-1.02746 2.88e-4,-0.19519 0.165614,-0.67514 0.368201,-1.06677 0.202474,-0.39163 0.303683,-0.81639 0.224545,-0.94388 -0.08078,-0.12701 -0.04459,-0.23138 0.081,-0.232 0.281105,6e-5 0.656949,-0.90969 1.126021,-2.72645 0.200386,-0.77666 0.518801,-1.7445 0.707214,-2.15062 0.188589,-0.40619 0.390216,-1.00725 0.448469,-1.33583 0.214611,-1.212056 1.2313,-4.902454 1.382464,-5.018108 0.167759,-0.128473 0.687153,-2.710535 0.669604,-3.329546 -0.01637,-0.605131 -2.303989,4.000861 -2.843535,5.726898 -0.1042,0.332923 -0.472176,1.203466 -0.818126,1.934715 -0.345793,0.731211 -0.628957,1.410451 -0.628991,1.509341 -0.0025,0.0996 -0.172163,0.57236 -0.382765,1.05224 -0.210377,0.4798 -0.493739,1.14129 -0.629397,1.46987 -0.135755,0.32863 -0.365041,0.85267 -0.50977,1.16467 -0.144899,0.31204 -0.270775,0.68833 -0.280258,0.83632 -0.0073,0.14738 -0.07987,0.43029 -0.156809,0.62745 -0.497634,1.27575 -1.147177,3.33103 -1.147171,3.62974 2.54e-4,0.19508 -0.416125,0.93679 -0.924743,1.64817 -0.508585,0.71137 -1.001037,1.6429 -1.094298,2.07004 -0.198297,0.90812 -0.235044,0.92147 -0.880749,0.31988 -0.415729,-0.38733 -0.473757,-0.66868 -0.382031,-1.85191 0.05949,-0.76738 0.19,-1.63876 0.290023,-1.93642 0.144221,-0.42917 0.106176,-0.51214 -0.18379,-0.40089 -0.201063,0.0773 -0.435712,0.42827 -0.521229,0.78017 -0.08557,0.35194 -0.411327,1.03091 -0.723928,1.50889 -0.836354,1.27885 -1.360416,2.64523 -1.110442,2.8952 0.127005,0.12701 0.319432,-0.0855 0.470991,-0.52021 0.284661,-0.81657 0.438535,-0.87211 1.076579,-0.38852 0.354203,0.26846 0.38683,0.4251 0.172332,0.82632 -0.145689,0.2723 -0.342405,0.48346 -0.43701,0.46918 -0.731842,-0.11024 -1.030462,0.0628 -0.887246,0.51395 0.08461,0.26569 0.08309,0.80346 -0.0029,1.19479 -0.119893,0.54578 -0.288442,0.7115 -0.723838,0.71154 -0.467774,-1e-5 -0.596037,0.15754 -0.72941,0.89609 -0.08902,0.49283 -0.20078,1.11116 -0.248421,1.374 -0.04742,0.26287 -0.152802,1.1231 -0.23369,1.91166 -0.08089,0.78856 -0.350308,2.55668 -0.598735,3.92915 -0.248422,1.37248 -0.45846,2.60907 -0.466814,2.74801 -0.0085,0.13886 -0.131013,-0.0164 -0.272581,-0.34477 -0.248422,-0.57643 -0.435768,-2.4658 -0.435543,-4.39228 5.7e-5,-0.51163 -0.266315,-1.45779 -0.594146,-2.11051 -0.678658,-1.35116 -0.752225,-2.05405 -0.235834,-2.25222 0.435373,-0.16691 0.501641,-2.12031 0.08078,-2.38043 -0.156244,-0.0966 -0.460379,0.0542 -0.695445,0.34432 -0.548436,0.67728 -0.938567,0.65501 -0.938567,-0.0536 1.7e-5,-0.3796 -0.169228,-0.61377 -0.507512,-0.70223 -0.412738,-0.10792 -0.477991,-0.25034 -0.349405,-0.76255 0.08693,-0.34642 0.02709,-0.99288 -0.13361,-1.43659 -0.366113,-1.0125 -0.03612,-1.84997 0.907426,-2.304 0.517277,-0.24888 0.769103,-0.65822 1.151489,-1.87174 0.269194,-0.85426 0.575389,-1.68764 0.680459,-1.85192 0.182549,-0.28545 0.04121,-0.39784 -0.399981,-0.31864 -0.483409,0.0869 -0.86176,-0.50655 -0.615935,-0.96594 0.134739,-0.25175 0.184637,-0.55538 0.110918,-0.67467 -0.145858,-0.23606 0.600271,-4.83527 0.816083,-5.03029 0.0727,-0.0657 0.155342,-0.33456 0.183621,-0.59739 0.0657,-0.61121 0.251075,-1.637229 0.323779,-1.792192 0.03105,-0.06553 0.081,-0.227029 0.111595,-0.358437 0.03048,-0.131408 0.07688,-0.292732 0.103015,-0.358436 0.02596,-0.06576 0.08416,-0.334559 0.129037,-0.597386 0.04459,-0.262873 0.260783,-1.391925 0.479853,-2.509055 0.569411,-2.903729 0.60998,-3.307063 0.348953,-3.468405 -0.256268,-0.158389 -1.467015,1.739653 -2.517403,3.946316 -0.218956,0.459984 -0.472176,0.890125 -0.562716,0.955834 -0.179219,0.130054 -1.0441,2.334578 -0.958363,2.442724 0.02879,0.03669 -0.167139,0.49707 -0.435712,1.023507 -0.268573,0.52642 -0.626479,1.44045 -0.795334,2.03113 -0.353638,1.23708 -0.310174,1.07188 -0.564297,2.14577 -0.108378,0.45807 -0.37108,1.09844 -0.583777,1.42305 -0.602574,0.91965 -0.968252,2.14657 -0.690873,2.318 0.352227,0.21772 0.05137,1.96197 -0.429729,2.49391 -0.228665,0.25265 -0.648713,0.45936 -0.933487,0.45936 -0.390159,-1e-5 -0.651073,0.29499 -1.05842,1.19629 -0.297361,0.65797 -0.899715,1.62605 -1.338565,2.15132 -0.438873,0.52535 -0.922011,1.33107 -1.073695,1.79068 -0.368145,1.11547 -1.194552,1.18677 -1.194547,0.10307 -2.8e-5,-0.40291 0.103072,-0.92522 0.229117,-1.16068 0.147383,-0.27535 0.143375,-0.73872 -0.01129,-1.29856 -0.337551,-1.22279 -0.699572,-1.13718 -1.623925,0.38429 -0.299506,0.49283 -0.677722,0.89609 -0.840514,0.89609 -0.406077,-1e-5 -1.643191,1.59164 -1.935567,2.4902 -0.155285,0.47726 -0.398232,0.73615 -0.691591,0.73697 -0.475732,10e-4 -0.637841,0.21997 -1.114082,1.50354 -0.161945,0.4365 -0.593898,0.94382 -0.968478,1.13752 -0.789909,0.40845 -1.168215,1.02114 -1.168215,1.89188 2.9e-5,0.34251 -0.20428,0.91413 -0.453944,1.27024 -0.249663,0.35612 -0.914131,1.45394 -1.476582,2.43964 -1.038072,1.81923 -2.255954,3.20558 -2.618962,2.98122 -0.109789,-0.0678 -0.483974,0.44333 -0.831476,1.13596 -0.347486,0.69265 -0.784366,1.34535 -0.970832,1.45045 -0.1865,0.10488 -0.339019,0.32119 -0.339019,0.4802 -2.3e-5,0.4422 -0.893613,0.9421 -1.027239,0.57462 z m 53.968857,-3.87445 c 0.118538,-0.78973 0.08128,-1.0753 -0.138859,-1.07525 -0.226915,-2e-5 -0.262477,-0.39479 -0.145632,-1.61291 0.08523,-0.88718 0.209417,-1.88178 0.276024,-2.21035 0.06661,-0.32864 0.05701,-0.46298 -0.02258,-0.29894 -0.0779,0.16431 -0.288442,0.29877 -0.466814,0.29871 -0.178935,0 -0.480925,0.22291 -0.671997,0.49549 -0.190225,0.27247 -0.405287,0.40151 -0.47641,0.28658 -0.251752,-0.40709 1.314191,-6.41349 2.197074,-8.42861 0.465685,-1.06286 0.557128,-1.92594 0.244414,-2.30288 -0.276589,-0.33298 0.05701,-1.13765 0.746394,-1.8004 0.228609,-0.21969 0.492779,-0.81086 0.586876,-1.31373 0.09427,-0.50282 0.255139,-0.96835 0.356743,-1.0343 0.102168,-0.0659 0.252881,-0.75312 0.336422,-1.52693 0.172727,-1.61185 0.558822,-3.18095 0.822823,-3.344 0.09935,-0.0611 0.206031,-0.44632 0.237076,-0.8557 0.02822,-0.40935 0.269815,-1.1414 0.52947,-1.62677 0.693842,-1.2945 0.829484,-2.31662 0.390611,-2.943266 -0.316666,-0.451799 -0.323439,-0.61808 -0.0508,-1.1497 0.176678,-0.341785 0.445364,-1.105384 0.597036,-1.696804 0.237641,-0.925054 1.155577,-3.29057 2.272209,-5.854474 0.17159,-0.394223 0.50294,-1.308287 0.73651,-2.031126 0.23369,-0.722799 0.7394,-1.89825 1.12442,-2.611985 0.56915,-1.05518 0.69785,-1.579225 0.68848,-2.804107 -0.0113,-1.31344 0.0564,-1.543884 0.51705,-1.799756 0.2907,-0.161325 0.5915,-0.276533 0.66816,-0.255873 0.0768,0.02088 0.13942,-0.461282 0.13942,-1.071053 6e-5,-0.632186 0.11967,-1.148379 0.27885,-1.201434 0.15353,-0.05137 0.27885,-0.245317 0.27885,-0.431478 0.002,-0.186838 0.2032,-0.541831 0.45213,-0.790434 0.26417,-0.263888 0.52326,-0.984593 0.62391,-1.732444 0.0948,-0.704263 0.30086,-1.603125 0.45891,-1.997411 0.15749,-0.394223 0.42899,-1.362052 0.60268,-2.150612 0.17386,-0.788554 0.54358,-1.917623 0.82175,-2.509049 0.27828,-0.591392 0.52496,-1.344136 0.54753,-1.672701 0.0508,-0.732243 0.76525,-3.87363 0.91416,-4.022598 0.0598,-0.05921 0.27546,0.03161 0.48036,0.201797 0.31384,0.260388 0.35279,0.767324 0.24724,3.200238 -0.12757,2.937863 -0.12024,2.981355 0.86064,4.978398 0.33078,0.673426 0.23538,1.274244 -0.27433,1.73569 -0.70824,0.640907 -0.67059,2.390799 0.0598,2.775376 0.79042,0.416237 0.91737,0.707694 0.75362,1.730666 -0.13096,0.817602 -0.0638,0.998039 0.59365,1.598451 0.61978,0.566154 0.73488,0.838583 0.70242,1.666085 -0.0339,0.795402 0.0813,1.090957 0.57412,1.508064 0.72619,0.614269 0.9999,1.753527 0.48826,2.039372 -0.29916,0.167478 -0.29295,0.320279 0.0452,1.128968 0.21676,0.514455 0.45948,1.670189 0.53399,2.569452 0.13829,1.61652 0.13378,1.633284 -0.42843,1.553232 -0.69385,-0.09884 -0.9172,0.593819 -0.3844,1.191369 0.39343,0.440961 0.74955,1.685034 0.9973,3.484108 0.0886,0.644627 0.38157,1.467794 0.64806,1.829928 0.36521,0.493513 0.45496,0.887223 0.36069,1.575923 -0.12587,0.920239 0.50633,5.114378 0.80488,5.338758 0.0869,0.0658 0.0576,0.38841 -0.0666,0.71692 -0.21845,0.57867 -0.23595,0.58296 -0.56492,0.13677 -0.18684,-0.25322 -0.40472,-0.39496 -0.48544,-0.31475 -0.21055,0.21038 0.34263,1.76107 0.74786,2.0974 0.1891,0.15676 0.28449,0.38057 0.21281,0.49707 -0.0723,0.11651 -0.0282,0.21202 0.0977,0.21162 0.34771,-1e-5 0.55092,0.69076 0.67589,2.29765 0.1033,1.32608 0.0683,1.47325 -0.38045,1.59058 -0.49165,0.12853 -0.69712,0.97658 -0.29634,1.22418 0.1095,0.0673 0.3319,0.74576 0.4956,1.50756 0.16313,0.76195 0.62548,2.06823 1.02682,2.90301 0.59907,1.24578 0.7066,1.71685 0.602,2.62851 -0.07,0.61092 0.0282,1.86343 0.22522,2.78345 0.64756,3.07106 0.64022,2.98696 0.25289,2.98699 -0.29917,-1e-5 -0.32232,0.16888 -0.13548,0.99983 0.18741,0.83017 0.15862,1.03676 -0.16426,1.21741 -0.3144,0.176 -0.35787,0.44209 -0.22748,1.38971 0.13322,0.96979 0.0971,1.17206 -0.20998,1.17214 -0.22691,-8e-5 -0.48375,-0.37599 -0.66082,-0.96569 -0.17273,-0.57829 -0.40529,-0.92131 -0.57796,-0.85499 -0.37085,0.14208 -0.82474,-0.31085 -0.82468,-0.82333 -2.3e-4,-0.21879 -0.21506,-0.67133 -0.47811,-1.00548 -0.26304,-0.33411 -0.4781,-0.7751 -0.4781,-0.97992 -6e-5,-0.5214 -0.76096,-2.06126 -1.01807,-2.06137 -0.11741,-8e-5 -0.19418,0.40319 -0.17216,0.89616 0.083,1.79361 0.0282,2.05788 -0.35562,1.73878 -0.19305,-0.16014 -0.33698,-0.36148 -0.32061,-0.44739 0.0169,-0.0862 -0.0282,-0.31797 -0.0971,-0.51542 -0.0706,-0.1975 -0.36352,-1.26993 -0.64485,-2.38485 -0.2811,-1.11504 -0.72517,-2.25052 -0.98268,-2.52448 -0.32683,-0.34839 -0.46794,-0.83494 -0.46851,-1.61765 -1.7e-4,-0.80099 -0.13603,-1.25565 -0.48036,-1.59692 -0.52608,-0.52586 -0.64823,-1.88484 -0.20885,-2.32391 0.1716,-0.17166 0.20547,-0.59912 0.0937,-1.18288 -0.0937,-0.50322 -0.19869,-1.40113 -0.22748,-1.99668 -0.0395,-0.80008 -0.21337,-1.24353 -0.66838,-1.69851 -0.5757,-0.57609 -0.61522,-0.76056 -0.60624,-2.85998 0.006,-1.99688 -0.0593,-2.3628 -0.61538,-3.31961 -0.34376,-0.59143 -0.69232,-1.25769 -0.77423,-1.48064 -0.20264,-0.559 -0.86312,-0.65129 -1.29471,-0.18295 -0.197,0.21394 -0.63881,0.57053 -0.9815,0.79244 -0.47189,0.30566 -0.59534,0.54815 -0.50915,0.99933 0.0643,0.32722 0.20434,0.65312 0.31836,0.72205 0.33699,0.20761 -0.51366,2.09184 -1.23279,2.73412 -0.68453,0.61113 -1.457,3.01134 -1.3843,4.30125 0.0677,1.19806 -0.0508,1.48841 -0.98968,2.41753 -0.52552,0.5205 -0.95587,1.13574 -0.95587,1.36723 6e-5,0.23143 -0.0943,0.52303 -0.20941,0.64783 -0.436901,0.47353 -1.062274,2.8996 -1.015254,3.94001 0.03951,0.89535 -0.05927,1.18637 -0.573272,1.66911 -0.342067,0.32158 -0.794713,0.96263 -1.005428,1.42461 -0.210546,0.46196 -0.552613,1.03886 -0.760055,1.282 -0.207159,0.24311 -0.540759,0.88832 -0.740806,1.43374 -0.209417,0.57049 -0.592972,1.093 -0.903429,1.23024 -0.296909,0.13096 -0.670586,0.53444 -0.830725,0.8961 -0.160309,0.36165 -0.372548,0.6575 -0.471895,0.65753 -0.09935,-2.5e-4 -0.184016,0.18819 -0.187967,0.4181 -0.01129,0.52524 -0.549791,1.25453 -0.929507,1.25454 -0.204902,2e-5 -0.241028,-0.30826 -0.125876,-1.07537 z m 16.8561,-37.929043 c 0.006,-1.823657 -0.19248,-4.435704 -0.52947,-6.994968 -0.13885,-1.051488 -0.30029,-2.395483 -0.3573,-2.986954 -0.0581,-0.59146 -0.16821,-1.451695 -0.24442,-1.911617 -0.11628,-0.701186 -0.16821,-0.759039 -0.32118,-0.358437 -0.0999,0.262929 -0.26248,1.391936 -0.36069,2.50906 -0.0982,1.117091 -0.26192,2.249999 -0.36295,2.517511 -0.10104,0.267557 -0.2591,1.771025 -0.35054,3.341168 -0.0914,1.570081 -0.27151,3.051761 -0.40021,3.292484 -0.14563,0.271677 -0.14958,0.545162 -0.0113,0.721106 0.12248,0.155962 0.29295,0.579103 0.37932,0.940537 0.13829,0.580746 0.26755,0.657062 1.10827,0.657124 0.59788,-1.7e-5 0.95406,0.110974 0.95858,0.298715 0.004,0.168155 0.11233,0.118369 0.2478,-0.114248 0.13208,-0.226915 0.24272,-1.087258 0.24498,-1.911668 z m 36.53511,29.081873 c -0.32683,-0.18983 -0.7968,-0.41685 -1.04443,-0.50463 -0.2478,-0.0877 -1.40361,-0.62357 -2.56883,-1.19066 -1.16506,-0.56711 -2.11845,-0.98195 -2.11845,-0.9219 -0.001,0.0605 -0.21845,-0.078 -0.48544,-0.30667 -0.26699,-0.22872 -0.56277,-0.42329 -0.65704,-0.43249 -0.0943,-0.009 -0.64846,-0.15309 -1.23149,-0.31989 -1.34185,-0.38389 -3.22475,-2.23289 -3.45719,-3.39499 -0.22692,-1.13448 -1.27169,-2.21859 -2.47231,-2.56553 -0.55882,-0.1615 -1.01553,-0.39671 -1.01553,-0.52287 0.001,-0.1265 -0.1541,-0.22929 -0.34207,-0.2294 -0.18797,1.5e-4 -0.57203,-0.32259 -0.85263,-0.71688 -0.28054,-0.39428 -0.45439,-0.71685 -0.38609,-0.71687 0.19417,2e-5 -0.39908,-1.29276 -0.92782,-2.02551 -0.80408,-1.11212 -1.56052,-1.72377 -2.52604,-2.04244 -0.50746,-0.16747 -0.86646,-0.39608 -0.79737,-0.5079 0.0689,-0.11182 -0.0282,-0.20259 -0.22127,-0.20338 -0.4352,7e-5 -0.57694,-0.37125 -0.54301,-1.42214 0.0282,-0.81423 -0.11403,-1.03689 -1.66529,-2.642739 -0.31893,-0.330043 -0.57971,-0.710968 -0.57982,-0.846621 -0.001,-0.135359 -0.34941,-0.349518 -0.7766,-0.475337 -0.56593,-0.166687 -0.89592,-0.483071 -1.21671,-1.167266 -0.55374,-1.181085 -0.66821,-1.760882 -0.38158,-1.937984 0.53851,-0.332922 -0.0452,-1.495797 -1.63548,-3.252299 -0.55261,-0.610527 -0.55826,-0.654719 -0.16539,-1.254493 0.22409,-0.341898 0.48431,-0.621698 0.57903,-0.621721 0.30876,6.8e-5 0.19587,-0.826797 -0.17047,-1.247962 -0.23425,-0.269533 -0.3082,-0.658868 -0.2145,-1.127393 0.0903,-0.450162 0.0339,-0.785049 -0.15297,-0.902571 -0.16313,-0.102789 -0.42335,-0.47703 -0.57937,-0.831798 -0.25852,-0.589246 -0.18683,-0.785472 0.82571,-2.270098 0.60979,-0.893828 1.27484,-1.749271 1.47788,-1.900977 0.22861,-0.170921 0.38328,-0.699651 0.40642,-1.389418 0.0452,-1.284636 0.69903,-2.162991 1.79455,-2.403624 0.65354,-0.143543 0.82723,-0.502206 0.70971,-1.46522 -0.0169,-0.152236 0.24554,-0.496674 0.58676,-0.765185 0.94063,-0.739869 2.01893,-2.345816 2.01887,-3.00675 0,-1.060137 0.49447,-1.805509 1.19746,-1.805498 0.43295,-2.8e-5 0.8222,-0.23431 1.19198,-0.716658 0.42731,-0.557185 0.62103,-0.656983 0.87211,-0.448638 0.24497,0.20349 0.32287,0.186838 0.32287,-0.06949 0,-0.311924 0.42279,-0.723539 3.54101,-3.445764 1.27841,-1.116143 1.95503,-1.44403 1.95503,-0.947412 0.002,0.181532 -0.11233,0.368427 -0.24949,0.414092 -0.13717,0.04572 -0.29239,0.426116 -0.34545,0.845255 -0.0508,0.419173 -0.27546,1.035102 -0.49391,1.368736 -0.21845,0.333713 -0.33022,0.782091 -0.2478,0.99647 0.12361,0.329253 -1.71773,3.970588 -2.22389,4.392979 -0.25232,0.210377 -0.97032,1.602188 -0.87656,1.698904 0.19587,0.202304 0.36916,1.944288 0.24329,2.446234 -0.079,0.314691 -0.71818,0.897661 -1.56318,1.425888 -0.7863,0.491482 -1.41281,1.025157 -1.39232,1.185894 0.0717,0.562548 -0.0226,0.803801 -0.53229,1.350385 -0.30481,0.326939 -0.5289,0.903931 -0.55205,1.419058 -0.0451,1.07173 -0.32739,1.943538 -0.62379,1.943532 -0.12249,1.47e-4 -0.22296,0.148794 -0.22296,0.330552 0.002,0.181307 -0.20152,0.383329 -0.44819,0.447735 -0.51931,0.135867 -0.64264,1.372314 -0.1366,1.372326 0.17103,-2.77e-4 0.62599,0.66554 1.01011,1.479077 0.57277,1.21283 0.6641,1.63224 0.50576,2.329865 -0.11007,0.486401 -0.10047,0.883159 0.0226,0.926386 1.07339,0.375257 2.06324,1.94058 2.22615,3.520296 0.0914,0.8893 0.1445,0.945521 0.90772,0.967011 1.36708,0.03838 1.96903,0.339413 2.90124,1.450701 0.80708,0.961998 0.89604,1.204409 0.89632,2.4378 2.2e-4,0.75324 -0.12757,1.49708 -0.28336,1.65276 -0.43126,0.43074 0.58941,2.30881 2.10873,3.87473 0.70033,0.72284 1.45999,1.58308 1.6881,1.91166 0.22804,0.32852 0.63299,0.8291 0.89987,1.11222 0.26699,0.28313 1.07644,1.20613 1.79935,2.05106 0.72308,0.84486 1.65315,1.79611 2.06741,2.11371 0.41432,0.31768 0.7035,0.65816 0.64282,0.75675 -0.0604,0.0987 0.006,0.17888 0.14845,0.17921 0.1558,2.6e-4 0.11628,0.21698 -0.10047,0.54827 -0.33134,0.50542 -0.3178,0.58453 0.17385,1.01031 0.95057,0.82388 2.42653,1.91902 3.20606,2.3787 0.41884,0.24701 0.82407,0.69871 0.90061,1.00389 0.0768,0.30515 0.29917,0.55481 0.49334,0.55481 0.42392,8e-5 0.43295,0.18532 0.0452,0.8865 -0.27094,0.48708 -0.33981,0.50125 -0.88762,0.18289 z m -75.388691,-2.02708 c -0.08162,-0.13242 0.02427,-0.30696 0.235157,-0.38796 0.457443,-0.17577 0.712503,0.0181 0.49261,0.37373 -0.19841,0.32102 -0.534042,0.32762 -0.727733,0.0141 z m 1.810888,0.0124 c -0.404102,-0.24972 -0.375201,-0.52292 0.0823,-0.77897 0.445026,-0.24904 0.855867,-0.0579 0.855873,0.39817 -2.3e-5,0.40168 -0.545952,0.6232 -0.938178,0.38079 z m -1.060221,-1.63063 c -0.06,-0.0975 0.03217,-0.51451 0.205635,-0.92673 0.255478,-0.60761 0.495884,-0.78007 1.269514,-0.91075 0.644751,-0.10894 0.992152,-0.3056 1.07081,-0.60664 0.08761,-0.33512 0.256099,-0.40896 0.680538,-0.29815 1.167509,0.3047 1.398642,1.25559 0.305433,1.25553 -0.604002,3e-5 -0.761635,0.43712 -0.317682,0.88107 0.142867,0.14287 0.168663,0.31599 0.05752,0.38485 -0.351042,0.21699 -3.156707,0.40631 -3.271356,0.22077 z m 4.018608,-3.38072 c 0.07338,-0.11871 -0.0017,-0.26406 -0.1668,-0.32299 -0.165107,-0.059 -0.224658,-0.18848 -0.132593,-0.28777 0.09229,-0.0994 0.331511,-0.0169 0.531502,0.18306 0.325584,0.32553 0.325471,0.37831 -0.001,0.50362 -0.200555,0.0771 -0.304642,0.0429 -0.231375,-0.0759 z M 95.356446,80.764638 c -0.576377,-0.879507 -0.13773,-1.782451 0.865554,-1.782389 0.556564,-1.01e-4 0.781447,0.140665 0.954287,0.595309 0.291265,0.76597 0.120231,1.185239 -0.62097,1.522932 -0.778343,0.354598 -0.739225,0.365548 -1.198871,-0.335852 z m 16.565014,-6.485519 c -0.0638,-0.107927 -0.1558,-0.625876 -0.20321,-1.151309 -0.0807,-0.920205 -0.0565,-0.958589 0.67662,-1.029525 0.56334,-0.05475 0.82689,0.04967 1.01559,0.402521 0.27603,0.515414 -0.0282,1.702324 -0.43633,1.702301 -0.12418,-1.01e-4 -0.3844,0.06096 -0.57903,0.135868 -0.19474,0.07434 -0.40755,0.04798 -0.47302,-0.05972 z"
       id="path1" /></g></svg>
